<svg id="Layer_1" data-name="Layer 1" xmlns="http://www.w3.org/2000/svg" viewBox="0 0 300 92.47"><title>brand-logo</title><path d="M140.79,50.16c.15-14,1.87-27.06,6.09-39.69,1-2.87,2.15-5.65,3.28-8.46a3.84,3.84,0,0,1,.89-1.34,2.28,2.28,0,0,1,2.34-.52c.52.17,1,.38,1.53.6a107.22,107.22,0,0,1,23.49,14.67c1.42,1.15,2.8,2.34,4.19,3.52.77.65.77.66,1.51,0A124.35,124.35,0,0,1,197.55,8.64a106,106,0,0,1,14.33-8c2.63-1.21,3.93-.55,5,1.89A106.78,106.78,0,0,1,223.4,24a133.08,133.08,0,0,1,2.37,31.43,88.72,88.72,0,0,1-1.28,11.95c-.15.87-.16.89-.92.9h-12c-.39,0-.81.08-.65-.61a88.3,88.3,0,0,0,1.67-21.21,111.73,111.73,0,0,0-4-27.51c-.38-1.37-.23-1.45-1.57-.61a114.53,114.53,0,0,0-22.63,18.85c-1,1.1-1,1.1-2,0a115,115,0,0,0-22.53-18.8c-1.42-.89-1.26-1-1.74.71a107.23,107.23,0,0,0-3.22,17.05,119.87,119.87,0,0,0-.72,15.5,86.25,86.25,0,0,0,1.43,14.78c.09.47.18.93.28,1.4q.09.41-.33.42h-12c-1.08,0-1.14,0-1.28-1.1-.43-3.51-.87-7-1.18-10.54C140.83,54.22,140.85,51.81,140.79,50.16Z"/><path d="M65.16,69.29c-1.24.21-2.47.5-3.72.63q-20,1.93-32.66-13.7a2.33,2.33,0,0,0-2.08-1c-4,0-7.95,0-11.93,0-.29,0-.58,0-.87,0-.47,0-.65.23-.63.68,0,.26,0,.51,0,.77V66.82c0,.22,0,.44,0,.66,0,.55-.17.79-.75.78-.94,0-1.89,0-2.84,0H1.15C0,68.25,0,68.24,0,67.13V1.48C0-.17-.13,0,1.48,0Q16.92,0,32.34,0a27.58,27.58,0,0,1,12.57,52c-1.09.58-1.31.37-.42,1.72a35.83,35.83,0,0,0,19.72,15l.93.29ZM13.27,27.54v8.31c0,1.75,0,3.5,0,5.25,0,.77,0,.78.81.82H29.94c1.13,0,2.27,0,3.39-.07A14.3,14.3,0,0,0,32,13.3c-5.87,0-11.73,0-17.6,0a1.74,1.74,0,0,0-.65,0,.9.9,0,0,0-.47.45,3.14,3.14,0,0,0,0,.87Z"/><path d="M135.65,35.81A35.72,35.72,0,1,1,100.35,0,35.74,35.74,0,0,1,135.65,35.81Zm-13.28-.06A22.45,22.45,0,1,0,100,58.21,22.48,22.48,0,0,0,122.37,35.75Z"/><path d="M293.3,68.25c-1.9,0-3.79,0-5.69,0-.85,0-.85,0-.9-.83A58,58,0,0,0,284.52,56c-.15-.54-.42-.82-1-.77-.25,0-.51,0-.76,0h-34c-1.77,0-1.44-.09-1.87,1.46a48.58,48.58,0,0,0-2,10.94c0,.56-.29.67-.76.66-.77,0-1.53,0-2.3,0-3,0-5.91,0-8.86,0-1.53,0-1.4.17-1.34-1.44a50.45,50.45,0,0,1,1.2-8.65,115.23,115.23,0,0,1,9.09-25.7A118.19,118.19,0,0,1,258.16,7c1.65-1.94,3.44-3.76,5.18-5.64a9.35,9.35,0,0,1,.8-.74,2.44,2.44,0,0,1,3.3,0c.82.72,1.58,1.51,2.34,2.31A110.49,110.49,0,0,1,286.9,27.06a123.14,123.14,0,0,1,11.25,28.49,58.8,58.8,0,0,1,1.8,11.1c.1,1.82.21,1.59-1.51,1.6S295,68.25,293.3,68.25ZM265.82,41.93h12l1,0c.33,0,.45-.19.3-.51-.08-.16-.14-.34-.22-.5a111.69,111.69,0,0,0-12.37-21.22c-.82-1.09-.73-1.1-1.54,0a105.24,105.24,0,0,0-9.47,15.21c-1,2-2,4.06-2.95,6.1-.42.9-.38.94.64,1h12.59Z"/><path d="M176.34,92.28c-1-.07-1.89.32-2.67-.36-.13-.11-.54,0-.79.15a5.29,5.29,0,0,1-3.53.17,2.76,2.76,0,0,1-2.13-3.4A2.62,2.62,0,0,1,168.67,87c.54-.29.72-.53.39-1.17a2.4,2.4,0,0,1,.38-2.93,3.09,3.09,0,0,1,3.18-.46,2.19,2.19,0,0,1,.89,3.31,2.25,2.25,0,0,1-.36.4c-.29.27-.87.57-.84.77a3.39,3.39,0,0,0,.74,1.17,4.46,4.46,0,0,0,.34.42c.26.29.45.18.55-.13a3.82,3.82,0,0,0,.14-.75.57.57,0,0,1,.62-.58c1.22-.07,1.34,0,1.05,1.27a4.17,4.17,0,0,1-.44,1.33,1.1,1.1,0,0,0,.22,1.54A12.35,12.35,0,0,1,176.34,92.28Zm-5.17-1.51c.18,0,.5-.09.81-.18s.43-.35.19-.65c-.51-.62-1-1.24-1.51-1.87-.26-.34-.52-.29-.83,0a1.65,1.65,0,0,0-.57,1.75C169.48,90.44,170.1,90.79,171.17,90.77Zm1-6.2a.79.79,0,0,0-.8-.82.81.81,0,0,0-.82.82c0,.5.36,1.1.69,1.08S172.18,85,172.21,84.57Z"/><path d="M193.61,86.76c1.61,1,2.06,2,1.61,3.46a2.77,2.77,0,0,1-2.57,2c-1.34.1-2.7,0-4,0-.62,0-.58-.4-.58-.8V83.2a1.61,1.61,0,0,0,0-.22c0-.47.18-.66.64-.65,1.13,0,2.26,0,3.39,0a3.4,3.4,0,0,1,1.45.41C195.07,83.61,195.12,85.38,193.61,86.76ZM190,89.12a4.56,4.56,0,0,0,0,1c0,.19.28.46.45.47a8.08,8.08,0,0,0,1.84,0,1.22,1.22,0,0,0,1.05-1.22,1.24,1.24,0,0,0-.87-1.45,3.51,3.51,0,0,0-1.07-.16C190,87.68,190,87.69,190,89.12Zm1.15-3.07v0a6,6,0,0,0,1-.1.9.9,0,0,0,.69-.89.8.8,0,0,0-.63-.89,10.29,10.29,0,0,0-1.84,0c-.11,0-.29.22-.32.36a6.39,6.39,0,0,0,0,1c0,.42.22.58.61.57Z"/><path d="M75.78,87.3a5.18,5.18,0,0,1,10.35.12,5.18,5.18,0,0,1-10.35-.12Zm8.29,0a3.27,3.27,0,0,0-1.63-3,3.12,3.12,0,0,0-3.48.34,3.64,3.64,0,0,0-.91,3.91,2.91,2.91,0,0,0,2.67,2.06A3.1,3.1,0,0,0,84.07,87.35Z"/><path d="M220.91,92.3c-.7,0-1.17,0-1.63,0a1,1,0,0,1-1-.52c-.29-.5-.62-1-.95-1.47a1.21,1.21,0,0,0-1.42-.43.73.73,0,0,0-.3.52c-.05.47,0,1-.07,1.41,0,.18-.26.38-.45.46a1.57,1.57,0,0,1-.65,0c-.78,0-.81,0-.81-.78,0-1.86,0-3.72,0-5.58,0-1,0-2,0-3,0-.37.08-.66.53-.64a25.56,25.56,0,0,1,3.92.24,3.56,3.56,0,0,1,2.4,5.14,3.08,3.08,0,0,1-1,1.12c-.51.35-.47.63-.16,1.06C219.82,90.61,220.28,91.35,220.91,92.3Zm-5.32-6.19v1c0,1,.12,1.13,1.14,1a6.5,6.5,0,0,0,.75-.12,1.59,1.59,0,0,0,1.25-1.33c.32-1.56-.5-2.52-2.22-2.56-.78,0-.89.07-.92.83C215.58,85.31,215.59,85.71,215.59,86.11Z"/><path d="M134.5,92.3a18.1,18.1,0,0,1-1.83,0,1.15,1.15,0,0,1-.66-.46c-.37-.49-.7-1-1-1.55a.84.84,0,0,0-.8-.44c-.76,0-.85.06-.88.86v.66c0,1,0,1-1,1s-1,0-1-1c0-2.66,0-5.31,0-8,0-1,0-1.05,1-1a20.91,20.91,0,0,1,3.26.2,3.55,3.55,0,0,1,2.56,5,3.87,3.87,0,0,1-1.11,1.31c-.37.3-.44.5-.17.88.43.59.82,1.21,1.21,1.82C134.24,91.77,134.33,92,134.5,92.3Zm-5.2-6.22c0,.4,0,.8,0,1.2,0,.79.13.89.89.83a6.5,6.5,0,0,0,.87-.12,1.62,1.62,0,0,0,1.39-1.59,1.85,1.85,0,0,0-1.88-2.28c-1.17-.13-1.26-.06-1.27,1.08Z"/><path d="M114.92,87.23c0-1.39,0-2.77,0-4.15,0-.57.2-.76.76-.76,1.67,0,3.35,0,5,0,.73,0,.76.06.77.84s0,.86-.74.88c-.88,0-1.75,0-2.62,0-1.23,0-1.23,0-1.24,1.29,0,.36,0,.73,0,1.09,0,.88,0,.89.95.9H120c.88,0,1.21.47.9,1.32a.76.76,0,0,1-.57.33c-.88,0-1.75,0-2.62,0s-1.1.53-.78,1.23c.08.18.45.31.7.32,1,0,2,0,3.05,0s1.27.48.95,1.37a.62.62,0,0,1-.48.3c-1.89,0-3.78,0-5.67,0-.54,0-.57-.31-.57-.71C114.92,90.14,114.92,88.68,114.92,87.23Z"/><path d="M94.35,82.26a2.82,2.82,0,0,1,2.35,1c.3.34.32.6-.09.89-.74.52-.81.52-1.58.08A1.74,1.74,0,0,0,94,84a1,1,0,0,0-.72.55,1.26,1.26,0,0,0,.19,1,3.13,3.13,0,0,0,1,.64c.65.33,1.33.6,2,1a2.73,2.73,0,0,1,1.25,2.92,2.6,2.6,0,0,1-2.24,2.24,4.26,4.26,0,0,1-4.3-1.18c-.59-.62-.56-.7.14-1.12l.28-.16c.4-.29.72-.35,1.09.12a2,2,0,0,0,2.07.67,1.07,1.07,0,0,0,1-.78,1,1,0,0,0-.56-1.18c-.68-.36-1.39-.65-2.07-1A2.86,2.86,0,0,1,91.3,85.6C91,83.61,92.16,82.25,94.35,82.26Z"/><path d="M199.64,92.25l4.41-10.13c1.58,3.5,3.06,6.77,4.61,10.18-.59,0-1,0-1.38,0s-.79-.08-.92-.56-.46-.59-.92-.58c-.94,0-1.89,0-2.84,0-.25,0-.67.16-.71.32-.24.9-.89.82-1.56.79ZM204,86.09c-.45,1.12-.83,2-1.18,3-.1.25,0,.44.3.44.58,0,1.17,0,1.75,0,.38,0,.39-.23.28-.52Z"/><path d="M156,92.3c-.45,0-.81,0-1.17,0-.53,0-.93-.08-1.08-.65a.67.67,0,0,0-.75-.49c-1,0-2,0-3.06,0a.85.85,0,0,0-.67.41c-.21.7-.71.73-1.28.69l-.92,0,4.29-9.86A71.88,71.88,0,0,1,156,92.3Zm-4.55-2.77c.22,0,.44,0,.65,0,.65,0,.68-.09.45-.73s-.55-1.42-.83-2.13a1.46,1.46,0,0,0-.25-.32c-.08.1-.21.18-.25.29-.22.54-.41,1.09-.63,1.63C150.06,89.53,150.06,89.53,151.43,89.53Z"/><path d="M106.06,82.33c1.06,0,2.11,0,3.17,0,.66,0,.66.4.66.86s0,.91-.66.88h-.76c-1.65,0-1.45,0-1.45,1.41,0,1.75,0,3.49,0,5.24a4.85,4.85,0,0,1,0,.66c-.06.3-.11.81-.25.84a4.5,4.5,0,0,1-1.51,0c-.09,0-.17-.45-.17-.68,0-1.93,0-3.86,0-5.79,0-1.73.31-1.67-1.6-1.68-.11,0-.22,0-.33,0a.94.94,0,0,1-.86-1.46.83.83,0,0,1,.62-.26C104,82.32,105,82.33,106.06,82.33Z"/><path d="M142,87.4c0,1.35,0,2.69,0,4,0,.85,0,.85-.85.86h-.44c-.46,0-.65-.16-.64-.63,0-.84,0-1.67,0-2.51V83c0-.28,0-.66.36-.67a6.08,6.08,0,0,1,1.47.16c.09,0,.09.47.1.72Z"/></svg>