<svg id="Layer_1" data-name="Layer 1" xmlns="http://www.w3.org/2000/svg" viewBox="0 0 300 157.87"><title>brand-logo</title><path d="M72.6,112.07c-1.58,1.52-3.3,2.93-4.72,4.59A178.41,178.41,0,0,1,25,153.53c-4.12,2.51-8.47,4.41-13.47,4.34-7.1-.1-11-3.78-11.41-10.84a40.41,40.41,0,0,1,3.27-18.44C13.7,104,31.05,85.78,54.27,73c3.95-2.17,8.55-3.22,12.93-4.53,1.8-.54,4.31-.65,4.88,1.62a6.53,6.53,0,0,1-1.18,5.15,30,30,0,0,1-7,5.81,85.47,85.47,0,0,1-9.28,4.51C32.81,95.53,17.37,112,6.72,133.08a43.39,43.39,0,0,0-3.61,12c-1.16,6.51,3.07,11,9.54,10a25.59,25.59,0,0,0,10.61-3.88c12.51-8.87,24.32-18.62,34.55-30.11,5.73-6.43,11.53-12.8,17.07-19.39a29.14,29.14,0,0,0,4.61-7.79C87.28,74.79,95.67,56,106.87,38.52A296.27,296.27,0,0,1,132.43,4.68,8.91,8.91,0,0,1,134,3c1.7-1.14,4.11-3.44,5.07-2.95,1.68.83,3,3.28,3.54,5.29a16.39,16.39,0,0,1-2.48,14.2c-4.65,6.78-9.24,13.6-14,20.26C115.91,53.92,105.61,67.93,95.38,82A28.33,28.33,0,0,0,93,85.87c-7.71,15-13.22,30.86-18.23,46.92a22,22,0,0,0-.73,2.76,6.64,6.64,0,0,0,.13,1.65,4.73,4.73,0,0,0,1.16-.88c1-1.42,1.85-2.89,2.75-4.35,16.57-27.12,35.38-52.68,54.64-77.91C137,48.45,142,43.43,146.78,38.21a26.3,26.3,0,0,1,4.3-3.79c4.78-3.34,7.72-2,8.66,3.89a14.52,14.52,0,0,1-2,10.46c-2.9,4.48-5.8,9-9.06,13.23a375.66,375.66,0,0,0-32,49.55c-4.12,7.58-7.52,15.48-9.11,24a37.7,37.7,0,0,0-.75,6.24c-.06,5,2.46,6.64,7,4.38a82.89,82.89,0,0,0,8.71-5.52c1.28-.84,2.44-1.85,3.74-2.66.29-.19.95.05,1.34.28.14.07.12.8-.07,1-5,6-10.78,11.05-19,11.69-5.75.44-9.55-3.1-9.48-9a46.29,46.29,0,0,1,2-13.5,217,217,0,0,1,8.61-22.41c7.12-15.9,16.24-30.72,25.39-45.52a39.7,39.7,0,0,0,1.91-4,19.89,19.89,0,0,0-3.49,3.07C119.64,79.06,105.74,98.49,92,118.05c-4.6,6.57-8.64,13.53-13,20.27-1.43,2.22-2.82,5.08-6,4.43s-4.37-3.82-4.38-6.68a70.18,70.18,0,0,1,1.2-11.89c.68-4.11,1.77-8.14,2.68-12.21a1.47,1.47,0,0,0,.49-.14c.07,0,0-.25.05-.38Zm44.8-68.93.29-.22-.13.38-1.36,1-2.26,3.42-2.28,3.44-1,2.47-1.4,1L108.4,57l-.43.13.29-.26.9-2.39,1.39-1,1-2.45c2-.34,2.57-1.6,2.3-3.43,2-.34,2.51-1.65,2.26-3.45Z"/><path d="M203.62,124.59c-2.42,2.14-4.77,4.37-7.27,6.41-5,4.14-8.25,3.35-10.08-2.79-.87-2.94-1.56-1.64-2.81-.5a32.06,32.06,0,0,1-5.3,4.33c-3.38,1.94-6.54.74-7.77-2.95a28.5,28.5,0,0,1-.84-6.17c-.1-1,0-2.1-.06-3.15l-2.73,2c-4.46,3.28-8.81,6.73-13.42,9.78a10.37,10.37,0,0,1-5.9,1.67c-3.26-.19-5.06-2.39-5.18-5.76-.08-2.25-.91-2.62-2.8-1.3-3.14,2.17-6.33,4.31-9.64,6.22-3.16,1.82-5.82,1.07-6.75-2.35a17.78,17.78,0,0,1-.31-8.89A60,60,0,0,1,128,108.51c3.34-6.21,7-12.29,10.8-18.21,2.43-3.75,4.26-4.29,6.46-3.08a6.46,6.46,0,0,1,2.83,7.94,19.32,19.32,0,0,1-3.51,5.8c-5.82,6.89-11.2,14.05-15.12,22.21a23.12,23.12,0,0,0-1.87,5.35c-.28,1.41.7,2.3,2,1.32,4.6-3.42,9.18-6.89,13.58-10.57,1.06-.89,1.43-2.63,2-4a141.63,141.63,0,0,1,29.84-45.13,55.1,55.1,0,0,1,4.65-4.26c3.52-2.8,6.1-2.41,8.62,1.22a7.86,7.86,0,0,1,.68,8.67,86.14,86.14,0,0,1-6.67,10.66,171,171,0,0,1-26.93,28.11c-4.42,3.67-5.63,8.42-6.6,13.49-.13.67.13,2,.46,2.05a3.29,3.29,0,0,0,2.55-.28c5.31-4.06,10.77-8,15.71-12.47,3.34-3,5.91-6.91,8.8-10.43,3-3.68,5.9-7.51,9.09-11.06A12.79,12.79,0,0,1,195,91.36c.94,0,2.19-.1,2.78.43,2.58,2.33,4.82,2.25,7.72.29,1.66-1.11,3.26.5,3.68,2.42a7.64,7.64,0,0,1-1.52,7q-3.39,3.9-6.79,7.78c-3.71,4.21-6.8,8.83-8.25,14.26-.55,2,0,4.36.08,6.56,1.62-1.17,3.53-2.09,4.83-3.54,6.38-7.09,13-14,17.19-22.77,1.63-3.38,4.28-6.3,6.7-9.24,1.23-1.49,3.06-2.51,5.11-1.41a4.34,4.34,0,0,1,2.25,5.36,78.27,78.27,0,0,1-3.27,7.76l-1.11,1.16-1.21,1L222,109.56l-.08.27,0-.43,1.15-1.09,1.21-1,1.27-1c2.35-1.85,4.69-3.71,7.05-5.55a94.28,94.28,0,0,1,8.21-6.23,6.28,6.28,0,0,1,4.74-.45c2.12.71,2.33,3,1.84,4.88A24.81,24.81,0,0,1,245,104.7c-3.06,5.5-6.43,10.84-9.36,16.4-1.43,2.69-3.56,5.42-2.17,8.88,2-1.93,4-3.83,6-5.79.94-1,1.7-2.07,2.65-3,4.87-4.84,9.6-9.66,13.08-15.75a25.45,25.45,0,0,1,14.34-11.77c2.36-.78,4.71-1.59,7.17,0a5.42,5.42,0,0,0,2.67.43c5.7.11,8.35,3,7.73,8.63a23.7,23.7,0,0,1-5.06,12c-2.1,2.72-4.37,5.3-6.54,8a9.78,9.78,0,0,0-.83,1.44c.64.25,1.4.85,1.9.69,3.77-1.26,7.79-2.15,11.15-4.15,3.89-2.32,7.17-5.66,10.75-8.51.34-.27.94-.21,1.43-.3,0,.53.21,1.25-.05,1.56-7.24,8.5-15.13,15.76-27.53,14.91a15,15,0,0,0-5.9,1.26c-2.14.79-4.07,2.13-6.18,3-6.15,2.56-11.18-.46-11.81-7-.15-1.66-.2-3.33-.29-5-1.46,1.14-3,2.19-4.36,3.45-2.65,2.48-5,5.25-7.81,7.58-3.44,2.9-7.06,1.58-8.06-2.81a16.14,16.14,0,0,1,1.46-11.15c2.54-4.91,5.42-9.64,8.12-14.46a10.85,10.85,0,0,0,.68-2,6.59,6.59,0,0,0-1.83.87c-9.33,8.8-18.26,18-25.71,28.46-.21.31-.28.8-.57,1-1.18.74-2.63,2.16-3.57,1.89-1.13-.32-2.25-2-2.63-3.29-.5-1.76-.3-3.73-.4-5.61Zm13.91-9.24,1.22-1.08.2-.18-.07.29-1.27,1.05-.28.19Zm-58.81-9.26c.52-.12,1.19-.09,1.53-.41,8.94-8.33,17.15-17.31,23.81-27.61a24.14,24.14,0,0,0,1.65-3,4.81,4.81,0,0,0,.14-1.54c-.65.13-1.46.06-1.92.43a23.09,23.09,0,0,0-3.76,3.49c-5.93,7.43-11.84,14.88-17.63,22.43a56.56,56.56,0,0,0-3.69,6.33l-.18.28Zm109.3-1c-4.85,3.59-8.23,8.41-11,13.62a18.86,18.86,0,0,0-1.74,6.53c-.14,1.16.36,3.24,1.1,3.52,3.43,1.32,6.16-1,8.94-2.53.7-.37.89-1.72,1.27-2.64.05-.12-.14-.34-.21-.51-2-4.52-.94-8.92.41-13.34.48-1.56.74-3.19,1.09-4.79ZM174.75,126c.44.77.82,2.19,1.74,2.79.56.37,2.25-.24,2.91-.92,2.78-2.85,5.82-5.61,7.91-8.94,3.42-5.46,6.17-11.32,9.19-17a16,16,0,0,0,.77-2,8.13,8.13,0,0,0-2.53.52c-9.1,5.32-15,13.32-19.11,22.81C175.33,123.91,175.16,124.66,174.75,126ZM282,102.66a3.6,3.6,0,0,0,0-1.14c-.33-1-.76-1.92-1.15-2.87a11.68,11.68,0,0,0-2.34,1.45c-5.21,5.3-7.52,11.81-7.81,19.11a2,2,0,0,0,.53,1.5,1.61,1.61,0,0,0,1.5-.33C277.59,115.39,281.93,110.11,282,102.66Z"/><path d="M150.75,70.81c.07-3.85,4.51-8.05,8.34-7.88a4.54,4.54,0,0,1,4.59,4.75c-.1,3.75-4.7,8.1-8.35,7.9A4.64,4.64,0,0,1,150.75,70.81Z"/></svg>