<svg id="Layer_1" data-name="Layer 1" xmlns="http://www.w3.org/2000/svg" viewBox="0 0 300 93.03"><title>brand-logo</title><path d="M69.47,1.5c.71,0,1.18-.1,1.65-.1,5.17,0,10.34,0,15.51,0a3.28,3.28,0,0,1,2.4,1A12.83,12.83,0,0,1,92.8,8.42C95.81,18,99,27.49,102.12,37c.17.51.36,1,.53,1.48.15,0,.22,0,.27,0a.21.21,0,0,0,.1-.13l.12-21V15.31c-2.68.13-3.6-2.08-5.14-3.44a1.43,1.43,0,0,1-.33-1q0-4.47,0-8.94c0-.1.1-.21.21-.43a13.24,13.24,0,0,1,1.33-.11c7,0,14,0,21,0a3.11,3.11,0,0,1,2.42.94c2.6,2.62,2.63,2.6,2.62,6.28,0,2,0,4,0,6,0,.11-.09.21-.23.53h-5.08c-.23,4.37-.08,8.55-.11,12.72s0,8.39,0,12.58V91c-.72.06-1.25.15-1.78.15-3.28,0-6.57,0-9.85,0a3.58,3.58,0,0,1-2.57-1.06,12.29,12.29,0,0,1-3.55-5.77c-3-9.56-6.19-19.07-9.31-28.59-.21-.63-.44-1.24-.71-2-.49,1.32-.59,21.3-.16,23.53,2.47-.06,3.4,2.15,5,3.49a1,1,0,0,1,.25.65c0,3.15,0,6.3,0,9.61-.8,0-1.45.11-2.1.12-6.75,0-13.5,0-20.24,0a4.35,4.35,0,0,1-3-1.26,5.94,5.94,0,0,1-2.29-5.54c.21-2.11.07-4.25.1-6.37,0-.11.1-.21.27-.55h5V15.26c-2.63.19-3.5-2.12-5-3.44a1.43,1.43,0,0,1-.28-1C69.47,7.78,69.47,4.74,69.47,1.5ZM103.8,86.56h11.49V10.62h5.45c.06-2.85.12-5.48,0-8.07-3.6-.42-20.79-.24-22,.2V10.5l5.21.2c.38,3.28.24,40.52-.17,41.8l-16.35-50h-17c0,2.24,0,4.35,0,6.47,0,.47.08.93.14,1.52l5.22.19V78.37H70.56v8.2H92.43V78.35H87.34c-.44-2.21-.35-40.57.1-41.83C92.91,53.24,98.34,69.86,103.8,86.56Z"/><path d="M266.26,54v23.2c2.49,0,3.48,2.14,5,3.51a1.17,1.17,0,0,1,.33.81c0,3.14,0,6.29,0,9.57-.77.06-1.36.13-1.95.13-6.81,0-13.62,0-20.43,0a4.15,4.15,0,0,1-2.88-1.2,5.86,5.86,0,0,1-2.32-5.53c.21-2.11.06-4.26.08-6.38a3.56,3.56,0,0,1,.22-.73h5.09V15.29c-2.61.16-3.53-2.08-5.06-3.44a1.51,1.51,0,0,1-.27-1q0-4.38,0-8.76a2.26,2.26,0,0,1,.2-.59c.46,0,.93-.11,1.4-.11,5.17,0,10.34,0,15.5,0a3.13,3.13,0,0,1,2.27.88,12.92,12.92,0,0,1,3.88,6.19c3,9.57,6.18,19.08,9.29,28.61a3.87,3.87,0,0,0,.95,1.7V15.27c-2.66.16-3.54-2.13-5.1-3.46a1.23,1.23,0,0,1-.23-.84c0-3.09,0-6.19,0-9.43a14.58,14.58,0,0,1,1.47-.16c7.05,0,14.11,0,21.16,0a3.33,3.33,0,0,1,2.26.89,6.58,6.58,0,0,1,2.77,6.44,57,57,0,0,0-.05,6.44h-5.5V91.06c-.71.06-1.18.13-1.66.13-3.34,0-6.69,0-10,0a3.35,3.35,0,0,1-2.42-1,12.41,12.41,0,0,1-3.68-5.9c-3-9.62-6.23-19.19-9.37-28.77-.18-.57-.4-1.12-.61-1.68Zm-4.48,24.39V36.62a2.35,2.35,0,0,1,.62,1.07l4.71,14.37,10.68,32.75c.6,1.81.6,1.82,2.53,1.82,2.55,0,5.11,0,7.66,0,.58,0,1.16-.08,1.87-.13V35.8c0-4.2,0-8.39,0-12.59s0-8.33,0-12.7h5.33v-8H273.33v8.09h5.06c.46,2,.41,40.7-.06,42-2.75-8.41-5.46-16.72-8.18-25L262,2.51c-2.89-.35-15.57-.23-17,.18,0,1.22,0,2.48,0,3.75s0,2.64.05,4.15h5.2c.38,2.12.3,66.21-.09,67.74h-4.89a24.78,24.78,0,0,0,.09,8.18h21.83c0-2.76,0-5.38,0-8.15Z"/><path d="M5.47,15.24c-2.8.1-3.69-2.16-5.24-3.5A1.26,1.26,0,0,1,0,10.89C0,7.8,0,4.7,0,1.48c.57-.06,1-.15,1.5-.15,7.05,0,14.1,0,21.15,0a2.63,2.63,0,0,1,2.25.9,17.86,17.86,0,0,0,1.49,1.42l.41-2.2c.5,0,1-.1,1.55-.1,6.93,0,13.86,0,20.79,0a3.86,3.86,0,0,1,2.57,1,6.28,6.28,0,0,1,2.6,6.15,43.84,43.84,0,0,0,0,4.73c0,.6-.06,1.19-.1,1.93H48.73V17.8q0,29.45,0,58.9a31.25,31.25,0,0,1-.52,5.79A11.32,11.32,0,0,1,41,91.17,27.8,27.8,0,0,1,30.81,93,38.63,38.63,0,0,1,18.7,91.82a14.2,14.2,0,0,1-6.63-4,33.2,33.2,0,0,0-2.42-2.47,12.55,12.55,0,0,1-4.07-8.69c-.1-1.15-.1-2.31-.1-3.47q0-27.72,0-55.43Zm.89-4.77V73.18c0,1,0,2.07.14,3.1.59,6.11,3.57,9.63,9.53,11.16a38.92,38.92,0,0,0,12.5.92,26.58,26.58,0,0,0,8.36-1.68,10.87,10.87,0,0,0,7-8.85,28.75,28.75,0,0,0,.32-4.35q0-30.29,0-60.56c0-.77,0-1.54.07-2.49H49.6V2.52c-1.85-.39-20.49-.34-22,0V10.5H33V73.22c0,.36,0,.73,0,1.09A4.57,4.57,0,0,1,29.42,79a13.65,13.65,0,0,1-7.73.11c-2.93-.81-4.09-2.39-4.09-5.43q0-30.74,0-61.48c0-.52.08-1,.13-1.76H23v-8H1v8.08Zm15.88,67.7a11.4,11.4,0,0,0,5.94.19c2.81-.57,3.94-1.91,3.94-4.8q0-28.28,0-56.55c0-.58-.07-1.17-.12-1.9-2.09.55-2.76-1.37-4.19-2.11l-.4,2.19H22.24Z"/><path d="M162.93,77.21c2.52.07,3.5,2.31,5.08,3.72a1,1,0,0,1,.18.67c0,3.09,0,6.18,0,9.42a16.82,16.82,0,0,1-1.7.17c-7,0-14,0-21,0a3.13,3.13,0,0,1-2.42-1c-2.52-2.54-2.55-2.51-2.55-6.13V77.38h5.35V15.3c-2.55.16-3.48-2.06-5-3.4a1.13,1.13,0,0,1-.3-.81c0-3.15,0-6.31,0-9.59.67-.05,1.19-.12,1.72-.12,6.93,0,13.86,0,20.79,0a3.68,3.68,0,0,1,2.43.92,6.58,6.58,0,0,1,2.74,6.44,61.08,61.08,0,0,0,0,6.37h-5.07C162.66,16.52,162.51,74.77,162.93,77.21ZM146.77,10.58c.42,2.68.29,66.38-.16,67.83h-5v8c2,.43,20.54.35,21.87-.07V78.42l-5.23-.2V10.5h5.22v-8H141.55c-.07,2.74-.07,5.36,0,8.13Z"/><path d="M228.31,48.36c0,9.55,0,19.1,0,28.64a27.39,27.39,0,0,1-.56,5.42,11.17,11.17,0,0,1-6.24,7.87,21.19,21.19,0,0,1-7,2,46.46,46.46,0,0,1-16.5-.54,14.4,14.4,0,0,1-7.85-4.34,34.52,34.52,0,0,0-2.73-2.68,12,12,0,0,1-3.78-7.68,33.56,33.56,0,0,1-.25-4q0-28.56,0-57.1a27.4,27.4,0,0,1,.54-5.43,11.25,11.25,0,0,1,6.61-8.2A21.85,21.85,0,0,1,197.4.45,47,47,0,0,1,213.71,1a14.55,14.55,0,0,1,8.36,4.85A25.28,25.28,0,0,0,224.28,8a12.18,12.18,0,0,1,3.81,7.86,31.73,31.73,0,0,1,.21,3.64Q228.33,34,228.31,48.36Zm-4.54-3.8q0-13.87,0-27.73c0-1,0-1.94,0-2.91-.33-6.18-3.26-9.89-9.18-11.7L213.68,2a43.48,43.48,0,0,0-13.41-.88,28.58,28.58,0,0,0-8,1.56,11.12,11.12,0,0,0-7.65,9.55,29.52,29.52,0,0,0-.25,3.63q0,28.73,0,57.45a26.57,26.57,0,0,0,.33,4.18,10.71,10.71,0,0,0,6.25,8.41,18.85,18.85,0,0,0,3.42,1.23,42.5,42.5,0,0,0,13.77.9,26.37,26.37,0,0,0,8.17-1.71,11,11,0,0,0,7.18-9.12,31.72,31.72,0,0,0,.29-4.36C223.79,63.4,223.77,54,223.77,44.56Z"/><path d="M113.84,56.87c-.18.53-.21,1.21-.56,1.56-4.15,4.19-8.35,8.32-12.54,12.47,0,0-.1,0-.37,0a6.8,6.8,0,0,1,0-1.28c0-.2.31-.36.48-.53L113,57a2.63,2.63,0,0,1,.44-.3Z"/><path d="M77.34,33.46c.2-.53.25-1.2.61-1.57,4.28-4.36,8.62-8.67,13-13,.64.62.66,1.12.12,1.64s-.94.94-1.41,1.41L79.06,32.48c-.42.42-.87.8-1.31,1.2Z"/><path d="M113.85,60.91c-.19.52-.23,1.19-.59,1.55-3.82,3.89-7.69,7.72-11.58,11.6-.79-.67-.55-1.19,0-1.72l2.45-2.45c2.66-2.66,5.31-5.32,8-8,.42-.42.86-.81,1.29-1.22Z"/><path d="M119.36,4.15C118.13,5.39,117,6.5,116,7.62a39.66,39.66,0,0,0-3.28,3.21,35.06,35.06,0,0,1-3.31,3.37c-1.1,1.11-2.21,2.22-3.41,3.41-.62-1-.14-1.58.43-2.14l4.37-4.38,6.44-6.44C117.7,4.15,118.17,3.51,119.36,4.15Z"/><path d="M90.32,16a3.13,3.13,0,0,1-.14,1.21,6.6,6.6,0,0,1-1.12,1.19l-10,10c-.42.42-.87.8-1.35,1.24A1.56,1.56,0,0,1,78,27.79L89.84,16Z"/><path d="M88.48,10c-.15.56-.13,1.12-.39,1.39-3.4,3.46-6.84,6.88-10.43,10.48-.29-.91-.29-1.47.24-2l10-9.83S88,10,88.48,10Z"/><path d="M87.07,6.91c.61.54.49,1,0,1.54-1,1-2.06,2.06-3.09,3.09-1.68,1.68-3.35,3.36-5,5-.37.37-.78.7-1.23,1.1A1.53,1.53,0,0,1,78,15.76L86.75,7C86.82,7,87,7,87.07,6.91Z"/><path d="M104.66,83.18c-.64-.57-.71-1-.22-1.52q4.45-4.43,8.93-8.83s.11,0,.44,0c-.16.56-.14,1.23-.47,1.57C110.48,77.38,107.56,80.27,104.66,83.18Z"/><path d="M77.34,25.43A4.61,4.61,0,0,1,78,23.86c3.59-3.63,7.23-7.2,10.85-10.79,0,0,.11,0,.2-.06a.76.76,0,0,1,.22,1.21,5.51,5.51,0,0,1-.62.66L78.55,24.94c-.25.25-.53.46-.8.69Z"/><path d="M113.85,64.93c-.19.52-.24,1.18-.59,1.54-3.49,3.55-7,7-10.62,10.64a1.07,1.07,0,0,1,0-1.74c.78-.76,1.55-1.54,2.32-2.31q3.61-3.61,7.22-7.21c.41-.41.85-.77,1.28-1.15Z"/><path d="M73.37,85.14l12-12a1.31,1.31,0,0,1-.4,1.62c-3.23,3.22-6.44,6.46-9.7,9.65A6.57,6.57,0,0,1,73.37,85.14Z"/><path d="M115.12,3.9l-9.38,9.36c-.34-.61,0-1.19.53-1.73q3.56-3.54,7.09-7.1A1.59,1.59,0,0,1,115.12,3.9Z"/><path d="M85.93,3.8c.67.57.69,1,.28,1.43-2.79,2.82-5.6,5.62-8.51,8.54a1.59,1.59,0,0,1,.24-2Z"/><path d="M113.86,69a4.74,4.74,0,0,1-.62,1.54c-3.14,3.2-6.33,6.36-9.52,9.54-1-.66-.5-1.19,0-1.72l5.79-5.8,3.83-3.83Z"/><path d="M113.87,36.86a5,5,0,0,1-.63,1.55c-2.37,2.43-4.79,4.81-7.31,7.33A1.29,1.29,0,0,1,106,44c2.45-2.5,4.93-5,7.4-7.46Z"/><path d="M105.8,62.19a2.55,2.55,0,0,1,.87-2.89c2.26-2.17,4.44-4.44,6.72-6.74.75,1.06.15,1.66-.44,2.25l-6.54,6.54a7.08,7.08,0,0,0-.61.83Z"/><path d="M105.54,21.29a4.58,4.58,0,0,1,.62-1.55c2.36-2.44,4.79-4.82,7.28-7.3a1.17,1.17,0,0,1,0,1.69c-2.45,2.5-4.93,5-7.4,7.45Z"/><path d="M113.82,32.77c-.13.48-.1,1.12-.41,1.43-2.43,2.53-4.92,5-7.5,7.58a1.54,1.54,0,0,1,.24-2l7.2-7.2Z"/><path d="M113.81,20.71c-.16.52-.16,1.19-.5,1.54-2.38,2.49-4.84,4.9-7.35,7.42a1.44,1.44,0,0,1,.29-2.05l7.07-7.09Z"/><path d="M77.36,37.65c.19-.64.18-1.32.52-1.68,2.39-2.48,4.84-4.89,7.39-7.44a1.55,1.55,0,0,1-.22,2c-2.37,2.35-4.73,4.7-7.11,7C77.87,37.6,77.72,37.58,77.36,37.65Z"/><path d="M85.6,32.9c-.18.53-.21,1.2-.56,1.56-2.32,2.4-4.71,4.73-7.08,7.07-.07.07-.22.06-.59.14.18-.64.16-1.33.5-1.67,2.39-2.48,4.86-4.88,7.3-7.31Z"/><path d="M77.41,73.7c.14-.53.12-1.21.45-1.56,2.37-2.47,4.82-4.87,7.25-7.3l.38.14c-.08.46,0,1.1-.25,1.38-2.45,2.55-5,5-7.46,7.56Z"/><path d="M85.58,60.9c-.18.64-.18,1.31-.51,1.65C82.69,65,80.24,67.43,77.66,70c-.29-.88-.29-1.45.24-2,2.36-2.33,4.71-4.67,7.08-7C85.05,61,85.2,61,85.58,60.9Z"/><path d="M85.26,48.61a1.56,1.56,0,0,1-.24,2c-2.4,2.39-4.79,4.79-7.55,7.06.1-.51,0-1.19.32-1.51C80.21,53.62,82.71,51.16,85.26,48.61Z"/><path d="M77.36,49.56c.18-.53.21-1.21.57-1.58,2.35-2.44,4.77-4.81,7.31-7.35a1.49,1.49,0,0,1-.2,1.93l-7.21,7.18Z"/><path d="M105.89,84.83,113.7,77a1.37,1.37,0,0,1-.45,1.56q-2.9,2.88-5.78,5.78A1.41,1.41,0,0,1,105.89,84.83Z"/><path d="M85.58,53c-.18.53-.21,1.2-.56,1.56C82.67,57,80.25,59.38,77.67,62c-.27-.86-.33-1.43.2-2l7.21-7.17Z"/><path d="M105.58,57.5c.17-.54.19-1.2.52-1.56,2.39-2.47,4.84-4.88,7.39-7.44.41.8.35,1.35-.11,1.81-2.45,2.43-4.92,4.85-7.38,7.26C106,57.6,105.88,57.56,105.58,57.5Z"/><path d="M113.81,44.81c-.13.48-.1,1.1-.4,1.41-2.42,2.52-4.91,5-7.51,7.59a1.51,1.51,0,0,1,.25-2l7.19-7.18Z"/><path d="M105.58,37.43c.17-.54.18-1.21.52-1.56,2.39-2.47,4.84-4.88,7.38-7.44a1.38,1.38,0,0,1-.1,1.81c-2.45,2.43-4.91,4.84-7.38,7.26C106,37.52,105.89,37.48,105.58,37.43Z"/><path d="M113.8,16.69c-.15.52-.14,1.19-.47,1.53-2.39,2.49-4.85,4.91-7.42,7.49-.39-.78-.38-1.34.08-1.81,2.45-2.49,4.93-4.95,7.4-7.43Z"/><path d="M113.81,24.74c-.16.51-.17,1.18-.5,1.52-2.38,2.48-4.84,4.9-7.4,7.47-.35-.71-.42-1.25,0-1.66,2.48-2.53,5-5,7.49-7.56Z"/><path d="M113.86,40.86a4.58,4.58,0,0,1-.62,1.55c-2.36,2.44-4.78,4.81-7.3,7.32a1.24,1.24,0,0,1,0-1.7c2.45-2.51,4.94-5,7.41-7.46Z"/><path d="M77.71,53.91a1.55,1.55,0,0,1,.22-2l7.31-7.3c.35.76.41,1.3-.06,1.77C82.73,48.89,80.26,51.35,77.71,53.91Z"/><path d="M77.7,65.92a1.53,1.53,0,0,1,.28-2c2.33-2.3,4.65-4.62,7-6.92.07-.07.22-.06.59-.14-.14.59-.09,1.22-.39,1.52C82.74,60.92,80.25,63.38,77.7,65.92Z"/><path d="M77.38,45.52c.14-.5.14-1.13.46-1.46,2.39-2.47,4.85-4.89,7.28-7.33l.4.19c-.14.51-.11,1.17-.43,1.5-2.4,2.48-4.86,4.9-7.29,7.34Z"/><path d="M77.36,77.8c.18-.63.18-1.32.52-1.67,2.37-2.47,4.82-4.87,7.35-7.4a1.49,1.49,0,0,1-.21,2l-7.09,7C77.87,77.75,77.71,77.73,77.36,77.8Z"/><path d="M92.4,22.19c-.1.42-.08,1-.34,1.24C90.36,25.22,88.59,27,86.51,29c0-.89-.18-1.48,0-1.71,1.74-1.84,3.54-3.62,5.33-5.41Z"/><path d="M77.49,85.08l7.91-7.93c.31.53.08,1.08-.43,1.59-1.89,1.89-3.75,3.8-5.69,5.64A5.63,5.63,0,0,1,77.49,85.08Z"/><path d="M105.8,62.18c-.69.62-1.42,1.21-2.07,1.86-1.33,1.31-2.62,2.66-4,4-.78-.69-.65-1.2-.1-1.75,1.65-1.67,3.29-3.35,5-5.08l1.15.94Z"/><path d="M94.74,53c-.64-.75-.57-1.2-.11-1.67,1.7-1.72,3.39-3.46,5.07-5.18.83.6.76,1.1.23,1.62Z"/><path d="M94.87,30.89c.67.86.51,1.34,0,1.84-1.67,1.66-3.33,3.35-5,5-.75-.54-.76-1-.23-1.56C91.37,34.47,93.06,32.74,94.87,30.89Z"/><path d="M87.84,31.72c-.7-.74-.56-1.19-.12-1.63l5-5.16c.84.6.75,1.1.23,1.62Z"/><path d="M95.71,56c-.63-.8-.48-1.29,0-1.79,1.66-1.67,3.31-3.37,5-5.05.76.56.81,1,.27,1.58Z"/><path d="M91.8,43.82c-.69-.73-.55-1.18-.11-1.63l5-5.18c.79.6.81,1.09.27,1.62Z"/><path d="M105.06,8.53c1.51-1.44,3-2.89,4.51-4.25.38-.34,1-.36,1.86-.62l-5.84,5.52Z"/><path d="M87.67,80.06c-1.48,1.48-2.92,3-4.46,4.42-.35.33-1,.31-1.55.45l-.21-.38c1.48-1.47,2.93-3,4.47-4.4.36-.32,1-.28,1.58-.41Z"/><path d="M88.33,34.48c.1-.42.07-1,.34-1.25,1.7-1.79,3.46-3.51,5.2-5.26l.38.13c0,.42.13,1-.09,1.23-1.73,1.83-3.53,3.6-5.32,5.39Z"/><path d="M102.27,52.4c-.13.46-.11,1.06-.4,1.37-1.66,1.76-3.4,3.45-5.12,5.18-.55-.52-.77-1-.26-1.48l5.25-5.27Z"/><path d="M101.05,8.73c1.61-1.6,3.07-3.12,4.61-4.55.33-.3,1-.29,1.44-.43l.24.35c-.43.46-.85.94-1.29,1.38-.93,1-1.87,1.91-2.83,2.83C102.59,8.92,102.57,8.9,101.05,8.73Z"/><path d="M98.78,65c-.76-.77-.59-1.23-.16-1.66l5.1-5.11c.73.53.71,1,.19,1.54C102.22,61.52,100.54,63.25,98.78,65Z"/><path d="M90.33,40.54c.08-.4,0-.95.25-1.2,1.7-1.79,3.47-3.52,5.24-5.3.72.61.65,1.1.13,1.62l-5.07,5.16Z"/><path d="M98.8,43.15c.79.73.48,1.2,0,1.66l-5,5.06c-.54-.46-.83-.88-.32-1.4C95.24,46.68,97,44.92,98.8,43.15Z"/><path d="M102.74,55.17c.74.76.58,1.21.14,1.65L97.8,61.94c-.81-.55-.7-1-.19-1.56Z"/><path d="M92.31,46.61c.13-.46.12-1,.41-1.37,1.62-1.78,3.32-3.5,5-5.29.69.73.72,1.22.19,1.74L92.83,46.8Z"/><path d="M85.21,84.84c1.91-2,3.56-3.64,5.38-5.36.72,1.36-.08,1.87-.64,2.29C88.56,82.82,87.89,85,85.21,84.84Z"/><path d="M77.5,9.35,77,8.58c1.44-1.41,2.88-2.8,4.29-4.2.53-.52,1.08-.76,1.59-.5Z"/><path d="M79.21,4.21c-1.44,1.44-2.86,2.92-4.36,4.3-.36.33-1,.33-1.56.49l-.23-.37c1.53-1.52,3-3.07,4.62-4.54.29-.26.86-.22,1.31-.32Z"/><path d="M113.62,80.41c.39,2.27-1.2,2.81-2,3.81-.57.69-.65.62-2.25.17Z"/><path d="M75,3.94,72.16,7.05c-.47-1.07.09-1.68.72-2.29S74.07,3.49,75,3.94Z"/><path d="M72.16,83.4c-.49-1.33.28-1.9.91-2.53s1.21-1.4,2.56-.89A34,34,0,0,1,72.16,83.4Z"/><path d="M100.33,6.85c-.44-.86,0-1.43.58-2s1.19-1.39,2.43-.82Z"/><path d="M119.1,7.09c.08,1.78,0,1.85-1.85,1.66Z"/><path d="M90.72,83.37c.25,1.43.25,1.43-1.34,1.39Z"/><path d="M288.11,54.64a1.79,1.79,0,0,1-.38,2.06l-12.8,12.71s-.11,0-.2.06c-.62-.45-.59-.94-.06-1.46l2.18-2.2,9.8-9.79C287.07,55.6,287.52,55.2,288.11,54.64Z"/><path d="M252.3,31.92c-.64-1.26,0-1.83.65-2.43l9.64-9.64L265,17.43c.87.8.42,1.33-.14,1.89Q262,22.2,259.1,25.1Z"/><path d="M260,70.78a1.7,1.7,0,0,1-.41,2Q253.77,78.57,248,84.36c-.4.4-.82.76-1.51.13a10.44,10.44,0,0,1,.78-1.1c.84-.88,1.72-1.7,2.55-2.59s2.15-1.43,2.87-2.72a16.1,16.1,0,0,1,3-3.12c1-1,2-2,2.95-3C259,71.63,259.43,71.28,260,70.78Z"/><path d="M275.69,72.53c-.7-.58-.46-1.1.1-1.65,1.34-1.31,2.66-2.66,4-4l7-7c.42-.42.87-.79,1.36-1.24a1.65,1.65,0,0,1-.34,2c-4,3.93-7.92,7.87-11.89,11.81C275.84,72.51,275.77,72.51,275.69,72.53Z"/><path d="M263.94,14.3c.87.91.57,1.38.09,1.86l-2.57,2.57-7.86,7.85c-.41.42-.86.79-1.34,1.23-.61-1.13.06-1.7.66-2.29,2.53-2.54,5.07-5.06,7.59-7.61C261.66,16.75,262.76,15.54,263.94,14.3Z"/><path d="M288.35,63c-.16.53-.16,1.21-.5,1.56-3.65,3.72-7.36,7.38-11.11,11.12-.71-.71-.46-1.23.07-1.75l3.35-3.34c2.19-2.19,4.38-4.39,6.57-6.57.42-.42.87-.8,1.31-1.19Z"/><path d="M292,3.82,280.37,15.41c-.38-.65-.06-1.22.48-1.77q4.71-4.68,9.38-9.37A1.4,1.4,0,0,1,292,3.82Z"/><path d="M263.09,11.41c.77.94.24,1.4-.23,1.88l-5,5-5.49,5.49a1.3,1.3,0,0,1,.21-1.93l2.19-2.19,6.95-6.95C262.12,12.31,262.57,11.91,263.09,11.41Z"/><path d="M277.74,78.71c-.83-1-.3-1.43.18-1.91q3.48-3.47,6.95-7L288,66.7a1.5,1.5,0,0,1-.23,1.93Z"/><path d="M252,19.54c.16-.53.16-1.2.5-1.55,3.17-3.23,6.39-6.42,9.6-9.61.86.76.43,1.29-.13,1.85-1.89,1.87-3.78,3.75-5.65,5.64-1.27,1.29-2.5,2.62-3.76,3.93Z"/><path d="M288.09,70.79a1.58,1.58,0,0,1-.31,1.92l-9,9c-.94-.76-.48-1.29.08-1.85,2.67-2.65,5.33-5.32,8-8C287.23,71.51,287.65,71.18,288.09,70.79Z"/><path d="M252.25,15.88a1.7,1.7,0,0,1,.36-2.12Q256.3,10.1,260,6.41a13.16,13.16,0,0,0,.93-1.14c1.07.78.68,1.31.12,1.87-1.94,1.92-3.87,3.86-5.8,5.8Z"/><path d="M260,75a1.41,1.41,0,0,1-.38,1.77c-2.54,2.53-5.06,5.09-7.63,7.59a6,6,0,0,1-1.76.73C250.83,83.69,258.27,76.12,260,75Z"/><path d="M288.06,74.68a1.66,1.66,0,0,1-.26,2L280,84.49c-.07.07-.21.07-.36.11a.88.88,0,0,1,0-1.39Z"/><path d="M252,63.69c.16-.52.18-1.18.52-1.52,2.35-2.43,4.78-4.8,7.19-7.18.06-.06.22-.05.35-.07a1.47,1.47,0,0,1-.4,1.77l-7.19,7.18Z"/><path d="M251.94,51.65c.17-.52.18-1.19.53-1.54,2.39-2.48,4.85-4.9,7.35-7.4a1.36,1.36,0,0,1-.22,2l-7.18,7.18Z"/><path d="M260.24,30.9c-.18.53-.21,1.21-.56,1.58-2.39,2.47-4.85,4.88-7.41,7.42a1.46,1.46,0,0,1,.2-1.9l7.29-7.3Z"/><path d="M260.25,35c-.19.53-.23,1.19-.59,1.56-2.39,2.46-4.84,4.86-7.38,7.39a1.29,1.29,0,0,1,.09-1.74c2.45-2.49,4.93-4.95,7.4-7.42Z"/><path d="M252,55.67c.16-.52.17-1.19.5-1.54,2.37-2.43,4.79-4.8,7.21-7.19.07-.06.23,0,.36-.06a1.51,1.51,0,0,1-.4,1.79c-2.41,2.38-4.8,4.78-7.2,7.18Z"/><path d="M260,58.93a1.51,1.51,0,0,1-.4,1.79c-2.41,2.39-4.8,4.79-7.29,7.28a1.28,1.28,0,0,1,.1-1.83c2.4-2.4,4.82-4.79,7.23-7.17C259.73,58.93,259.89,59,260,58.93Z"/><path d="M259.9,62.69a1.58,1.58,0,0,1-.26,2l-7.09,7c-.07.06-.21,0-.59.12.12-.58.06-1.21.35-1.51C254.77,67.8,257.3,65.3,259.9,62.69Z"/><path d="M260.23,51c-.15.49-.16,1.11-.47,1.44-2.42,2.51-4.9,5-7.48,7.55a1.41,1.41,0,0,1,.11-1.83c2.46-2.47,4.94-4.94,7.41-7.4Z"/><path d="M260.07,26.12a2.9,2.9,0,0,1-1,3.06c-1.95,1.82-3.79,3.76-5.69,5.65-.33.33-.69.63-1.1,1-.57-1-.08-1.57.49-2.14q3.28-3.27,6.56-6.57a8.86,8.86,0,0,0,.74-1Z"/><path d="M260.25,67.05c-.18.54-.22,1.21-.58,1.58-2.38,2.48-4.84,4.89-7.38,7.44a1.37,1.37,0,0,1,.07-1.8c2.46-2.49,4.94-5,7.42-7.44Z"/><path d="M260.23,39c-.14.49-.14,1.12-.46,1.45-2.42,2.52-4.91,5-7.5,7.57-.39-.82-.35-1.38.11-1.85q3.69-3.72,7.42-7.43Z"/><path d="M288.34,46.89c-.12.49-.08,1.14-.39,1.46-2.41,2.51-4.89,5-7.44,7.52a1.49,1.49,0,0,1,.23-2l7.16-7.15Z"/><path d="M280.18,51.55c.13-.49.11-1.12.42-1.44,2.41-2.51,4.89-5,7.46-7.54a1.66,1.66,0,0,1-.27,2c-2.4,2.37-4.78,4.76-7.16,7.14Z"/><path d="M280.5,19.77a1.54,1.54,0,0,1,.23-2c2.39-2.39,4.78-4.78,7.54-7-.09.5,0,1.18-.31,1.49C285.55,14.75,283.06,17.2,280.5,19.77Z"/><path d="M280.49,23.76a1.59,1.59,0,0,1,.3-2c2.32-2.3,4.63-4.61,6.95-6.9.08-.08.22-.08.4-.13a1.47,1.47,0,0,1-.33,1.76Z"/><path d="M288.39,18.85a4.21,4.21,0,0,1-.59,1.57c-2.31,2.39-4.69,4.72-7.05,7.06-.07.07-.23.05-.6.12.19-.65.18-1.33.52-1.68,2.38-2.48,4.83-4.89,7.26-7.32Z"/><path d="M280.14,47.46a4.4,4.4,0,0,1,.6-1.55c2.32-2.38,4.71-4.71,7.08-7,.07-.07.22,0,.57-.11-.19.64-.19,1.32-.54,1.68-2.37,2.47-4.82,4.88-7.25,7.31Z"/><path d="M280.14,31.4a4.73,4.73,0,0,1,.61-1.54c2.32-2.37,4.7-4.69,7.06-7,.07-.07.22-.05.58-.13-.19.64-.2,1.32-.55,1.67-2.37,2.47-4.81,4.88-7.23,7.3Z"/><path d="M288.09,34.5a1.84,1.84,0,0,1-.36,2.13c-2.29,2.25-4.55,4.53-6.82,6.79a3.59,3.59,0,0,1-.78.38c.21-.77.19-1.46.53-1.8C283,39.52,285.49,37.11,288.09,34.5Z"/><path d="M280.17,35.6c.14-.58.1-1.21.4-1.53,2.42-2.51,4.9-5,7.47-7.53a1.54,1.54,0,0,1-.23,1.95l-7.07,7C280.67,35.57,280.52,35.54,280.17,35.6Z"/><path d="M288.09,30.5a1.82,1.82,0,0,1-.35,2.11c-2.33,2.29-4.64,4.61-7,6.9-.07.08-.22.07-.61.17.17-.65.15-1.34.48-1.68C283,35.52,285.48,33.11,288.09,30.5Z"/><path d="M288.37,50.8c-.18.64-.16,1.32-.49,1.67-2.38,2.48-4.83,4.89-7.37,7.43A1.47,1.47,0,0,1,280.7,58l7.08-7C287.86,50.87,288,50.88,288.37,50.8Z"/><path d="M259.88,3.81l-7.73,7.74a1.39,1.39,0,0,1,.41-1.75c1.85-1.83,3.68-3.66,5.51-5.51A1.54,1.54,0,0,1,259.88,3.81Z"/><path d="M280.3,11.29a1.41,1.41,0,0,1,.47-1.6l5.51-5.5a1.34,1.34,0,0,1,1.55-.44Z"/><path d="M263.91,36.34c-.56-.59-.66-1.07-.17-1.55L269,29.52l.38.15c-.06.47.05,1.11-.21,1.39C267.46,32.85,265.68,34.58,263.91,36.34Z"/><path d="M276.86,53.78c.76.71.52,1.19.05,1.68l-5,5.12c-.53-.5-.85-.94-.36-1.44C273.27,57.33,275.07,55.57,276.86,53.78Z"/><path d="M270.91,35.52c.73.79.61,1.24.15,1.69l-5.14,5.14c-.71-.58-.66-1.07-.14-1.6Z"/><path d="M269.86,54.53c-.71-.8-.51-1.29,0-1.78,1.67-1.67,3.32-3.36,5-5,.71.54.79,1,.25,1.57Z"/><path d="M272.83,63.54c-.62-.57-.68-1-.2-1.51l5.23-5.24c.62.54.7,1,.21,1.5Z"/><path d="M272.33,38.74c-.06.47.05,1.1-.21,1.37-1.69,1.8-3.47,3.52-5.32,5.38-.41-.7-.57-1.16-.1-1.64L272,38.59Z"/><path d="M262.43,33c.11-.41.09-.94.35-1.21,1.7-1.79,3.46-3.51,5.21-5.26l.37.14c0,.41.13,1-.08,1.22-1.73,1.83-3.53,3.6-5.31,5.39Z"/><path d="M262,30.26c-.59-.51-.76-1-.26-1.48q2.61-2.64,5.24-5.26c.77.61.64,1.1.14,1.61Z"/><path d="M268.88,51.42c-.71-.55-.67-1.05-.14-1.58,1.71-1.71,3.4-3.43,5.1-5.15.8.6.67,1.1.16,1.6Z"/><path d="M279.23,59.92c-.05.46.09,1.09-.16,1.36-1.69,1.8-3.47,3.53-5.26,5.32-.64-.66-.58-1.16-.08-1.66l5.13-5.15Z"/><path d="M270.4,57.27c.1-.45.05-1,.33-1.34,1.63-1.78,3.35-3.5,5.13-5.33.59.69.72,1.17.19,1.71l-5.11,5.16Z"/><path d="M260.06,26.15l4.56-4.32c.47-.44.92-.9,1.44-1.4.49.63.59,1.1.13,1.56-1.73,1.76-3.48,3.5-5.29,5.32-.35-.51-.59-.84-.83-1.18Z"/><path d="M267.91,48.39c-.6-.51-.75-1-.25-1.45l5.27-5.3c.63.64.6,1.12.09,1.63Z"/><path d="M270.41,32.86c-.06.38,0,.89-.19,1.12-1.73,1.81-3.52,3.57-5.29,5.35l-.4-.15c0-.42-.12-1,.1-1.21,1.72-1.82,3.52-3.58,5.3-5.35Z"/><path d="M260.1,79.18l.34,1c-1.42,1.36-2.9,2.79-4.39,4.2-.53.5-.56.48-1.54.4Z"/><path d="M288.16,78.9a1.59,1.59,0,0,1-.36,1.8q-1.82,1.78-3.59,3.61a1.64,1.64,0,0,1-1.81.47A30.12,30.12,0,0,1,288.16,78.9Z"/><path d="M277.75,8.7c1.65-1.65,3.15-3.19,4.72-4.65a1.78,1.78,0,0,1,1.61-.13,10.05,10.05,0,0,1-.69.89q-1.71,1.74-3.45,3.45C279.31,8.87,279.28,8.85,277.75,8.7Z"/><path d="M256.23,3.83c-1.68,1.68-3.09,3.17-4.59,4.56a4.68,4.68,0,0,1-1.57.61l-.26-.37c.94-1,1.82-2,2.84-2.88S254.12,3.41,256.23,3.83Z"/><path d="M264.3,80.12c-1.45,1.44-2.86,2.92-4.36,4.3-.38.35-1.05.37-1.58.55l-.26-.39c1.56-1.55,3.09-3.12,4.7-4.61.28-.26.89-.16,1.35-.23Z"/><path d="M252.06,4.15q-2.28,2.21-4.57,4.4a2.65,2.65,0,0,1-.6.33A.88.88,0,0,1,247,7.42c1.6-1.24,2.45-3.47,4.73-3.77Z"/><path d="M280,3.91l-5,4.82a1,1,0,0,1,.14-1.33c1.08-1.12,2.16-2.27,3.33-3.3.36-.32,1-.3,1.52-.44Z"/><path d="M290,8.71l3.53-3.6c.6,1.39-.4,1.95-1.1,2.64S291.25,9.28,290,8.71Z"/><path d="M262.14,84.71l3.26-3.19c.49.92,0,1.49-.55,2.07C263.65,84.83,263.66,84.84,262.14,84.71Z"/><path d="M286.25,84.75l1.76-1.9C288.36,84.66,288.2,84.84,286.25,84.75Z"/><path d="M248.32,79.94l-1.43,1.52C246.35,79.84,246.43,79.76,248.32,79.94Z"/><path d="M248,3.94l-1.13,1.22C246.41,3.76,246.46,3.7,248,3.94Z"/><path d="M276.14,4.1,275,5a1.46,1.46,0,0,1-.22-.46C274.72,3.59,275.31,3.66,276.14,4.1Z"/><path d="M27.73,86.6,42.49,71.9c.21.93.22.94-.75,1.91Q36.54,79,31.31,84.24c-.6.6-1.22,1.18-1.8,1.8A1.68,1.68,0,0,1,27.73,86.6Z"/><path d="M34.84,16.49a1.52,1.52,0,0,1,.24-2q5.16-5.14,10.3-10.3a1.86,1.86,0,0,1,2.07-.42C43.29,8.14,39.05,12.21,34.84,16.49Z"/><path d="M7.76,14.74a5.25,5.25,0,0,1,.68-1.66q4.46-4.56,9-9c.36-.35,1-.37,1.47-.51Z"/><path d="M32.17,86.2,42.51,75.78A1.73,1.73,0,0,1,42,77.57q-3.93,3.92-7.85,7.85A3,3,0,0,1,32.17,86.2Z"/><path d="M7.85,42.81c.16-.52.17-1.2.51-1.55,2.36-2.43,4.79-4.8,7.21-7.18.06-.07.22,0,.35-.07a1.56,1.56,0,0,1-.41,1.8c-2.41,2.38-4.8,4.78-7.2,7.18Z"/><path d="M42.5,31.16a1.83,1.83,0,0,1-.35,2.1c-2.41,2.38-4.8,4.78-7.31,7.29A1.43,1.43,0,0,1,35,38.66Z"/><path d="M16.12,58.22c-.14.49-.14,1.13-.46,1.46-2.42,2.51-4.91,5-7.49,7.55-.39-.81-.35-1.38.12-1.85,2.46-2.48,4.94-4.95,7.41-7.42Z"/><path d="M16.13,22c-.17.53-.2,1.22-.55,1.58-2.39,2.48-4.85,4.89-7.41,7.45a1.5,1.5,0,0,1,.19-1.92l7.3-7.3Z"/><path d="M15.84,49.82a1.7,1.7,0,0,1-.35,2c-2.4,2.38-4.79,4.78-7.28,7.27a1.37,1.37,0,0,1,.15-1.86Z"/><path d="M7.84,34.76c.17-.52.2-1.19.54-1.54,2.42-2.46,4.9-4.85,7.42-7.31a1.36,1.36,0,0,1-.3,1.86Q11.9,31.36,8.32,35Z"/><path d="M15.91,62.1a1.51,1.51,0,0,1-.39,1.79c-2.4,2.39-4.79,4.8-7.28,7.3a1.32,1.32,0,0,1,.09-1.85Q12,65.71,15.72,62.1S15.83,62.1,15.91,62.1Z"/><path d="M42.55,15.38a1.58,1.58,0,0,1-.5,1.91c-2.36,2.35-4.7,4.72-7.15,7.18A1.3,1.3,0,0,1,35,22.63c2.45-2.43,4.92-4.84,7.38-7.25C42.38,15.35,42.47,15.38,42.55,15.38Z"/><path d="M15.8,29.75a1.6,1.6,0,0,1-.29,2c-2.4,2.38-4.79,4.78-7.26,7.25a1.12,1.12,0,0,1,0-1.65C10.7,34.84,13.22,32.34,15.8,29.75Z"/><path d="M8.16,19c-.38-.83-.32-1.38.15-1.85q3.69-3.71,7.4-7.4l.37.18c-.14.52-.12,1.19-.44,1.53C13.22,14,10.74,16.46,8.16,19Z"/><path d="M7.83,26.7c.14-.49.15-1.11.47-1.44,2.43-2.51,4.92-5,7.39-7.44l.37.17c-.12.51-.08,1.19-.39,1.53-2.42,2.52-4.91,5-7.38,7.44Z"/><path d="M42.49,11.1a1.77,1.77,0,0,1-.34,2.08c-2.41,2.38-4.8,4.79-7.3,7.29A1.4,1.4,0,0,1,35,18.59C37.43,16.15,39.87,13.72,42.49,11.1Z"/><path d="M42.5,27.17a1.78,1.78,0,0,1-.35,2.07c-2.41,2.39-4.8,4.79-7.3,7.29A1.38,1.38,0,0,1,35,34.66C37.43,32.21,39.87,29.79,42.5,27.17Z"/><path d="M15.79,41.78a1.61,1.61,0,0,1-.25,2c-2.37,2.34-4.72,4.7-7.09,7-.07.07-.21,0-.59.12.12-.58.06-1.21.35-1.51C10.67,46.89,13.2,44.39,15.79,41.78Z"/><path d="M16.15,14.06a4.58,4.58,0,0,1-.59,1.57c-2.39,2.48-4.84,4.89-7.38,7.43a1.39,1.39,0,0,1,.09-1.81c2.46-2.49,4.94-5,7.41-7.44Z"/><path d="M16.12,54.21c-.14.49-.14,1.13-.45,1.45-2.43,2.52-4.91,5-7.49,7.56-.4-.81-.36-1.37.11-1.84Q12,57.65,15.7,54Z"/><path d="M8.2,47.15a1.51,1.51,0,0,1,.24-2l7.1-7c.07-.07.23-.06.36-.09a1.59,1.59,0,0,1-.49,1.92C13,42.27,10.7,44.64,8.2,47.15Z"/><path d="M34.5,44.26c.16-.53.17-1.2.51-1.55,2.36-2.44,4.79-4.81,7.21-7.19.07-.07.22-.05.35-.07a1.58,1.58,0,0,1-.41,1.8c-2.41,2.39-4.8,4.8-7.19,7.2Z"/><path d="M42.49,23.14a1.79,1.79,0,0,1-.37,2.1C39.75,27.59,37.4,30,35,32.4a1.14,1.14,0,0,1,0-1.76C37.43,28.19,39.87,25.76,42.49,23.14Z"/><path d="M34.63,12c-.25-.6.09-1.12.59-1.63q3-3,6-6c.55-.56,1.12-.9,1.67-.65Z"/><path d="M34.58,60.17c.14-.49.14-1.11.45-1.43,2.4-2.48,4.85-4.9,7.29-7.34l.37.14c-.11.52,0,1.2-.35,1.52C40,55.55,37.5,58,35.07,60.41Z"/><path d="M42.75,55.6c-.12.5-.1,1.15-.41,1.47C40,59.56,37.5,62,35,64.54c-.43-.79-.41-1.33.06-1.8q3.65-3.68,7.31-7.33Z"/><path d="M34.57,56.13c.15-.48.17-1.09.48-1.42,2.4-2.48,4.85-4.9,7.29-7.34l.37.17c-.12.52-.07,1.2-.39,1.54-2.38,2.48-4.84,4.89-7.27,7.33Z"/><path d="M34.33,77.21a3.19,3.19,0,0,1,1.09-2.87c2-1.93,3.94-3.92,5.91-5.88.34-.33.7-.63,1.19-1.08a1.68,1.68,0,0,1-.27,1.91C39.61,71.92,37,74.57,34.33,77.21Z"/><path d="M15,3.7,8,10.64c-.31-.51-.13-1.1.44-1.66,1.63-1.63,3.23-3.29,4.91-4.87a4.85,4.85,0,0,1,1.56-.62Z"/><path d="M42.73,19.47c-.14.52-.13,1.19-.45,1.54-2.42,2.51-4.9,4.95-7.36,7.41l-.38-.19c.1-.47,0-1.1.33-1.4,2.46-2.56,5-5.06,7.49-7.57Z"/><path d="M7.82,54.78c.16-.48.18-1.1.5-1.42,2.43-2.51,4.92-5,7.38-7.43l.37.18c-.13.51-.1,1.19-.42,1.52-2.42,2.51-4.9,5-7.36,7.43Z"/><path d="M16.18,74.3a4.78,4.78,0,0,1-.61,1.55c-1.82,1.92-3.72,3.78-5.63,5.7-.55-.48-.91-.84-.36-1.4q3-3.08,6.11-6.13Z"/><path d="M42.75,39.53c-.13.49-.09,1.14-.39,1.46-2.42,2.51-4.9,5-7.43,7.5-.46-.78-.41-1.31.08-1.8l7.3-7.29Z"/><path d="M15.86,65.85A1.86,1.86,0,0,1,15.45,68c-2.36,2.33-4.7,4.69-7.1,7.1a1.06,1.06,0,0,1-.06-1.65C10.74,71,13.22,68.49,15.86,65.85Z"/><path d="M42.78,43.56c-.18.54-.2,1.22-.56,1.59-2.34,2.43-4.76,4.8-7.29,7.33a1.43,1.43,0,0,1,.19-1.9l7.19-7.17Z"/><path d="M42.77,63.64c-.17.53-.19,1.21-.54,1.57C39.89,67.65,37.47,70,35,72.51a1.3,1.3,0,0,1,.15-1.85l7.19-7.17Z"/><path d="M42.76,59.65c-.14.5-.13,1.13-.44,1.46-2.39,2.48-4.84,4.89-7.38,7.45-.42-.81-.37-1.34.1-1.81l7.29-7.31Z"/><path d="M16.16,70.3a4.68,4.68,0,0,1-.63,1.55c-2.22,2.3-4.5,4.55-6.76,6.82-.57-.53-.68-1-.21-1.5,2.37-2.4,4.76-4.77,7.14-7.16Z"/><path d="M23.39,86.46c.58-.61,1.1-1.16,1.64-1.7,1.15-1.16,2.34-2.28,3.45-3.47a3.86,3.86,0,0,1,3-1.21L29.2,82.34c-1.23,1.23-2.49,2.46-3.7,3.72A1.65,1.65,0,0,1,23.39,86.46Z"/><path d="M11,82.9l5.72-5.56c.44.26.69.66.15,1.21-1.54,1.56-3.09,3.1-4.65,4.64C11.8,83.64,11.4,83.51,11,82.9Z"/><path d="M11.29,4.11C9.77,5.56,8.27,7,6.7,8.42c-.37.31-1,.3-1.53.44L5,8.45C6.49,6.94,8,5.4,9.55,4c.33-.31,1-.28,1.46-.41Z"/><path d="M19.77,79.71c-1.87,1.86-3.41,3.44-5,5-.24.23-.79.13-1.2.19l-.21-.43c1.65-1.65,3.28-3.3,5-4.9C18.47,79.38,19,79.6,19.77,79.71Z"/><path d="M39.31,4c-1.53,1.53-3,3.09-4.63,4.56-.31.28-.92.24-1.39.34l-.2-.4c1.53-1.52,3-3.07,4.63-4.54.3-.28.92-.23,1.4-.33Z"/><path d="M35.38,3.88c-1.61,1.6-3.12,3.15-4.7,4.63-.29.26-.84.23-1.7.45a9.35,9.35,0,0,1,.8-1.22c1.15-1.18,2.32-2.32,3.47-3.49A1.6,1.6,0,0,1,35.38,3.88Z"/><path d="M19.68,86c1.56-1.51,3.11-3,4.69-4.54.5-.49.53-.46,2-.29-1.77,1.77-3.42,3.45-5.13,5.06-.27.25-.83.2-1.26.3Z"/><path d="M17.45,8.68l4-4.15c.4,1.76-1.3,2.31-2.16,3.33S18.41,8.77,17.45,8.68Z"/><path d="M2.58,8.31c-.48-1.26.29-1.87,1-2.42C4.62,5,5.17,3.36,7,3.66A16.78,16.78,0,0,1,2.58,8.31Z"/><path d="M16.27,85.44c1.75-1.67,3.4-3.27,5.09-4.82.14-.13.56,0,1.05.08a5.85,5.85,0,0,1-.6,1c-1.19,1.22-2.4,2.42-3.6,3.62C17.73,85.75,17.26,86.28,16.27,85.44Z"/><path d="M48,5.76a1.65,1.65,0,0,1-.46,2.05c-.62.57-1.15,1.3-2.33.87A10.21,10.21,0,0,1,48,5.76Z"/><path d="M31.5,3.75,29.41,5.66C28.82,4.16,29.27,3.64,31.5,3.75Z"/><path d="M38.46,83.51l2.06-1.85C40.37,82.45,40.19,82.67,38.46,83.51Z"/><path d="M145.92,84.79l10.44-10.45c.24,1,.28,1-.32,1.59-2.77,2.8-5.57,5.57-8.34,8.37A1.63,1.63,0,0,1,145.92,84.79Z"/><path d="M148.66,14.54a1.56,1.56,0,0,1,.51-1.73q4.26-4.22,8.48-8.47c.54-.54,1.11-.9,1.75-.56Z"/><path d="M156.39,33.69a1.86,1.86,0,0,1-.37,2.15c-2.29,2.25-4.55,4.53-6.83,6.8a4.11,4.11,0,0,1-.75.37c.21-.77.18-1.47.52-1.83C151.34,38.7,153.8,36.29,156.39,33.69Z"/><path d="M156.69,9.85c-.19.64-.18,1.33-.52,1.68-2.39,2.48-4.84,4.89-7.4,7.45-.3-.86-.31-1.44.24-2l7.1-7C156.18,9.9,156.33,9.92,156.69,9.85Z"/><path d="M148.46,22.62c.18-.54.22-1.22.57-1.58,2.32-2.39,4.71-4.72,7.08-7.06.07-.07.22-.05.57-.12-.18.64-.17,1.32-.51,1.68-2.39,2.48-4.84,4.89-7.28,7.32Z"/><path d="M156.39,57.77a1.84,1.84,0,0,1-.36,2.14c-2.33,2.29-4.64,4.61-7,6.91-.07.07-.22.07-.57.17.16-.66.13-1.36.46-1.71C151.33,62.8,153.79,60.38,156.39,57.77Z"/><path d="M156.39,17.63a1.83,1.83,0,0,1-.36,2.13c-2.33,2.29-4.64,4.61-7,6.91-.07.07-.22.07-.57.18.16-.66.12-1.37.46-1.71C151.33,22.65,153.78,20.24,156.39,17.63Z"/><path d="M148.47,70.8c.18-.53.21-1.21.57-1.57,2.31-2.39,4.69-4.71,7.06-7,.07-.07.22-.06.58-.15-.19.65-.18,1.32-.52,1.67-2.39,2.47-4.84,4.87-7.28,7.3Z"/><path d="M156.65,70.17c-.12.5-.08,1.16-.39,1.48-2.42,2.52-4.91,5-7.46,7.53a1.62,1.62,0,0,1,.23-2q3.58-3.59,7.16-7.19Z"/><path d="M148.75,39.06A1.82,1.82,0,0,1,149.1,37c2.34-2.29,4.65-4.61,7-6.91.07-.07.22-.06.36-.1a1.49,1.49,0,0,1-.34,1.78C153.69,34.12,151.3,36.51,148.75,39.06Z"/><path d="M156.67,54.12c-.16.53-.17,1.22-.52,1.58-2.38,2.48-4.83,4.89-7.37,7.44a1.67,1.67,0,0,1,.24-2L156.19,54Z"/><path d="M156.34,37.75a1.59,1.59,0,0,1-.24,2c-2.4,2.38-4.8,4.77-7.53,7.07.09-.52,0-1.21.31-1.53C151.3,42.76,153.79,40.31,156.34,37.75Z"/><path d="M148.79,59.12a1.66,1.66,0,0,1,.25-2c2.4-2.38,4.79-4.78,7.54-7-.1.52,0,1.2-.33,1.52C153.83,54.11,151.34,56.56,148.79,59.12Z"/><path d="M156.67,42.14c-.15.49-.15,1.12-.46,1.45-2.39,2.48-4.84,4.89-7.27,7.33l-.38-.18c.13-.51.09-1.18.41-1.51,2.38-2.48,4.84-4.9,7.27-7.33Z"/><path d="M156.67,66.23c-.15.49-.15,1.12-.46,1.44-2.39,2.48-4.84,4.89-7.27,7.33l-.39-.18c.14-.51.1-1.18.42-1.51,2.39-2.48,4.84-4.89,7.27-7.32Z"/><path d="M148.53,54.86c.12-.58.05-1.22.34-1.52,2.43-2.52,4.92-5,7.47-7.54a1.56,1.56,0,0,1-.25,2c-2.34,2.3-4.65,4.61-7,6.92C149,54.77,148.89,54.76,148.53,54.86Z"/><path d="M156.67,22.05c-.15.49-.14,1.13-.46,1.46-2.39,2.48-4.84,4.89-7.27,7.33l-.38-.17c.12-.51.09-1.18.41-1.51,2.38-2.49,4.84-4.9,7.27-7.34Z"/><path d="M156.69,26.05c-.19.54-.23,1.21-.58,1.58-2.35,2.43-4.77,4.8-7.27,7.3A1.42,1.42,0,0,1,149,33l7.19-7.18Z"/><path d="M156.74,78.18c-.71,2.72-3.15,3.9-4.71,5.76-.8,1-.88.88-1.91.83C152.19,82.72,154.38,80.54,156.74,78.18Z"/><path d="M148.65,10.41c-.3-1.2-.65-.34,4.84-5.91.56-.57,1.12-1.11,1.9-.7Z"/><path d="M153.74,84.55c1.48-1.48,2.92-3,4.46-4.4.36-.33,1-.3,1.57-.43l.16.33c-1.47,1.48-2.92,3-4.45,4.42-.35.32-1,.31-1.54.45Z"/><path d="M147.9,79.91l-4.62,4.62a1.49,1.49,0,0,1,.34-1.93c.78-.76,1.56-1.52,2.3-2.31A1.74,1.74,0,0,1,147.9,79.91Z"/><path d="M145.31,8.38l4.46-4.2a1.54,1.54,0,0,1,2-.23c-1.64,1.63-3.13,3.17-4.71,4.62-.32.3-1,.26-1.47.38Z"/><path d="M147.29,3.73,143.2,8c-.48-1,.25-1.65,1-2.21C145.16,5,145.7,3.37,147.29,3.73Z"/><path d="M157.81,8.85,162,4.53c.34.76-.08,1.34-.67,1.93C158.63,9.09,158.83,9.13,157.81,8.85Z"/><path d="M161.9,80.58c.61,1.66-.73,2.22-1.49,3-1.09,1.17-1.19,1.53-2.56,1.07Z"/><path d="M212.51,44.75q0,14.13,0,28.27c0,3.18-1.19,4.8-4.27,5.7a14.65,14.65,0,0,1-8.45,0c-3-.88-4.21-2.54-4.21-5.59q0-28.54,0-57.08c0-3,1.22-4.66,4-5.54a14.74,14.74,0,0,1,8.45-.13c3.22.88,4.49,2.58,4.49,6q0,14.22,0,28.45Zm-.83-29.64a13.32,13.32,0,0,0-7.1-.35c-3.28.67-4.51,2.19-4.51,5.56V77.73a13.4,13.4,0,0,0,7,.31c3.4-.69,4.6-2.18,4.61-5.67V15.11Z"/><path d="M205.5,86.29,222,69.79c.29.23.16.75-.13,1.22A5,5,0,0,1,221,72q-6.69,6.7-13.39,13.41C207,86,206.38,86.65,205.5,86.29Z"/><path d="M186,18.58a1.77,1.77,0,0,1,.55-2.06q6.72-6.67,13.38-13.38a1.8,1.8,0,0,1,1.93-.65C201.34,3.57,188.32,16.8,186,18.58Z"/><path d="M209.92,86l12-12c.26.85.27.86-.72,1.86l-8,8c-.52.51-1,1-1.54,1.54A1.64,1.64,0,0,1,209.92,86Z"/><path d="M197.54,3l-11.63,11.4a1.48,1.48,0,0,1,.47-1.73c3.05-3,6.07-6.1,9.15-9.1a6.83,6.83,0,0,1,1.83-.92Z"/><path d="M214.15,54.77a1.89,1.89,0,0,1,.4-2.16c2.34-2.29,4.65-4.61,7-6.91.07-.07.21-.06.42-.12a1.33,1.33,0,0,1-.21,1.63Z"/><path d="M213.87,30.32c.18-.53.21-1.21.57-1.58,2.38-2.47,4.83-4.89,7.39-7.44a1.48,1.48,0,0,1-.19,2q-3.66,3.64-7.33,7.28Z"/><path d="M222.19,65.8c-.19.52-.24,1.18-.59,1.54-2.41,2.46-4.88,4.85-7.34,7.26,0,0-.12,0-.45,0,.23-.67.26-1.41.64-1.8,2.37-2.48,4.82-4.88,7.24-7.31Z"/><path d="M214.22,42.68a1.65,1.65,0,0,1,.38-2.13c2.37-2.35,4.71-4.71,7.15-7.15.65.9.3,1.5-.3,2.09l-5,5Z"/><path d="M222.18,25.67c-.15.49-.14,1.12-.45,1.44-2.43,2.52-4.93,5-7.55,7.6-.32-.88-.29-1.46.24-2l7.28-7.3Z"/><path d="M214.07,58.5a1.69,1.69,0,0,1,.42-1.82c2.41-2.38,4.8-4.78,7.27-7.26a1.18,1.18,0,0,1,0,1.72c-2.48,2.47-5,4.92-7.5,7.37C214.23,58.54,214.15,58.5,214.07,58.5Z"/><path d="M222.17,41.71c-.17.52-.19,1.19-.53,1.55-2.39,2.49-4.86,4.91-7.35,7.4a1.4,1.4,0,0,1,.2-2l7.19-7.2Z"/><path d="M221.82,37.35a1.41,1.41,0,0,1-.11,1.84l-7.41,7.42-.36-.17c.13-.53.08-1.22.41-1.56C216.77,42.37,219.25,39.92,221.82,37.35Z"/><path d="M221.8,29.34a1.5,1.5,0,0,1-.24,2c-2.39,2.4-4.77,4.81-7.24,7.31a1.44,1.44,0,0,1,.17-2C216.9,34.26,219.29,31.86,221.8,29.34Z"/><path d="M222.15,53.73c-.15.52-.15,1.19-.49,1.53-2.42,2.46-4.91,4.85-7.37,7.26,0,0-.12,0-.2,0a1.59,1.59,0,0,1,.39-1.81c2.41-2.39,4.8-4.79,7.2-7.19Z"/><path d="M213.87,26.31a4.35,4.35,0,0,1,.57-1.58c2.38-2.48,4.84-4.89,7.39-7.44a1.48,1.48,0,0,1-.19,2l-7.32,7.28Z"/><path d="M222.12,57.69c-.1.47,0,1.1-.33,1.4-2.46,2.56-5,5.06-7.59,7.67a1.62,1.62,0,0,1,.25-2l7.25-7.14S221.8,57.63,222.12,57.69Z"/><path d="M194.22,13.41a5.63,5.63,0,0,1-.79,1.92c-2.37,2.48-4.84,4.87-7.36,7.38a1.47,1.47,0,0,1,.2-1.92l7.55-7.55Z"/><path d="M214.2,70.77a1.77,1.77,0,0,1,.37-2.14c2.38-2.35,4.73-4.72,7.17-7.16a1.21,1.21,0,0,1-.07,1.81C219.24,65.73,216.8,68.17,214.2,70.77Z"/><path d="M185.71,54.65c.19-.65.18-1.35.52-1.7,2.38-2.48,4.84-4.89,7.34-7.39a1.44,1.44,0,0,1-.19,1.93l-7.09,7C186.22,54.59,186.06,54.57,185.71,54.65Z"/><path d="M186,46.82a1.7,1.7,0,0,1,.26-2l7.33-7.36c.3.79.4,1.35-.06,1.81C191.09,41.76,188.61,44.23,186,46.82Z"/><path d="M194,57.91c-.19.53-.23,1.2-.58,1.57-2.31,2.39-4.7,4.72-7.06,7.06-.07.07-.23.06-.59.14.18-.65.16-1.34.5-1.69,2.38-2.48,4.83-4.9,7.26-7.33Z"/><path d="M213.86,22.29c.19-.53.23-1.2.58-1.57,2.34-2.43,4.75-4.8,7.25-7.31a1.32,1.32,0,0,1-.09,1.86l-7.29,7.26Z"/><path d="M193.59,17.47a1.55,1.55,0,0,1-.21,2l-7.17,7.19-.38-.12c.09-.52,0-1.21.3-1.52C188.55,22.48,191,20,193.59,17.47Z"/><path d="M193.94,61.73c-.19.65-.17,1.33-.51,1.68-2.38,2.48-4.83,4.89-7.39,7.45a1.6,1.6,0,0,1,.21-2l7.1-7C193.42,61.81,193.57,61.82,193.94,61.73Z"/><path d="M185.74,30.62c.16-.65.13-1.34.46-1.69,2.39-2.49,4.84-4.9,7.41-7.48.36.87.32,1.44-.21,2l-7.08,7.06C186.25,30.54,186.09,30.53,185.74,30.62Z"/><path d="M193.63,41.49a1.73,1.73,0,0,1-.33,2.09c-2.33,2.29-4.64,4.61-7,6.9-.07.08-.22.07-.38.11a1.5,1.5,0,0,1,.35-1.78Z"/><path d="M194,66c-.2.52-.25,1.19-.61,1.55-2.31,2.39-4.69,4.72-7.06,7-.07.07-.23,0-.58.11.19-.64.19-1.33.53-1.68,2.38-2.48,4.83-4.89,7.26-7.31Z"/><path d="M193.62,25.43a1.72,1.72,0,0,1-.31,2.1c-2.33,2.3-4.63,4.62-7,6.93-.07.07-.22.07-.4.13a1.52,1.52,0,0,1,.32-1.78Z"/><path d="M185.71,38.6c.19-.64.19-1.34.53-1.69,2.38-2.48,4.83-4.89,7.33-7.38a1.42,1.42,0,0,1-.19,1.92l-7.09,7C186.22,38.55,186.06,38.53,185.71,38.6Z"/><path d="M185.72,62.67c.18-.65.17-1.34.51-1.7,2.38-2.48,4.83-4.89,7.36-7.42a1.51,1.51,0,0,1-.2,2l-7.09,7C186.23,62.6,186.08,62.59,185.72,62.67Z"/><path d="M193.9,33.78c-.15.53-.13,1.21-.46,1.56-2.38,2.49-4.83,4.92-7.26,7.36l-.37-.14c.1-.52,0-1.21.33-1.53,2.42-2.53,4.92-5,7.39-7.46Z"/><path d="M193.62,49.48a1.73,1.73,0,0,1-.32,2.11c-2.33,2.29-4.64,4.61-7,6.91-.07.07-.22.07-.41.12a1.58,1.58,0,0,1,.36-1.78Z"/><path d="M213.89,18.29c.14-.49.13-1.13.44-1.46,2.21-2.3,4.48-4.54,6.87-6.93.41.68.57,1.15.12,1.61q-3.49,3.53-7,7Z"/><path d="M193.92,69.92c-.13.49-.12,1.13-.43,1.45-2.25,2.34-4.57,4.61-7,7-.34-.73-.49-1.21,0-1.68l7-7Z"/><path d="M194,73.84c-.14.52-.12,1.19-.45,1.53-1.82,1.93-3.72,3.78-5.63,5.68-.93-.54-.68-1.06-.14-1.6l5-5c.25-.25.52-.49.79-.74Z"/><path d="M198.16,8.88c2.17-2.17,4.07-4.11,6-6A2.23,2.23,0,0,1,206,2.56a7.3,7.3,0,0,1-.64.9c-1.31,1.34-2.68,2.63-4,4A4.28,4.28,0,0,1,198.16,8.88Z"/><path d="M213.79,14.31a4.44,4.44,0,0,1,.56-1.52c1.74-1.86,3.56-3.64,5.37-5.48.81.44.93.88.35,1.46l-5.77,5.76Z"/><path d="M208.56,80.41c-1.86,1.86-3.7,3.75-5.62,5.56-.34.32-1,.28-1.53.4l-.18-.37c1.78-1.77,3.53-3.58,5.37-5.29.42-.39,1.17-.42,1.77-.62Z"/><path d="M189,82.59l5.7-5.68c.49.23.65.63.12,1.16q-2.29,2.33-4.62,4.62C189.71,83.22,189.29,83.1,189,82.59Z"/><path d="M217.77,5.22l.88.78L213,11.41c-.6-.59-.63-.62,0-1.25C214.49,8.54,216.07,7,217.77,5.22Z"/><path d="M214.92,84.72l6.42-6.38C221.18,80.45,217.52,84.18,214.92,84.72Z"/><path d="M203.24,7.84c1.65-1.65,3.28-3.34,5-4.94.3-.28.92-.22,1.38-.32l.22.41c-1.6,1.6-3.17,3.23-4.83,4.77-.36.32-1,.3-1.57.44Z"/><path d="M216.2,4.6Q213.85,7,211.5,9.35c-.54.55-1,.26-1.52-.26l4.75-4.74C215.25,3.83,215.68,4,216.2,4.6Z"/><path d="M197.5,85.48c1.57-1.49,3.11-3,4.73-4.44a4,4,0,0,1,1.54-.49l.24.39c-1.65,1.64-3.28,3.31-5,4.9-.27.25-.86.16-1.3.23Z"/><path d="M196.9,79c-.09-.06.16.09.38.21,0,.2.05.36,0,.42L192.94,84c-.48.49-1,.73-1.41.25Z"/><path d="M200.34,80.62l-4.61,4.59c-.48.48-1,.4-1.55-.18,1.55-1.55,3.07-3.11,4.65-4.59.28-.26.84-.22,1.27-.32Z"/><path d="M206.93,8c1.56-1.51,3-3,4.53-4.34A4.46,4.46,0,0,1,213,3.12l.23.37c-.33.39-.64.8-1,1.17C211.09,5.78,210,6.87,208.86,8,208.34,8.53,207.82,8.81,206.93,8Z"/><path d="M192.16,4.42,186.48,10A8.52,8.52,0,0,1,192.16,4.42Z"/></svg>