<svg id="Layer_1" data-name="Layer 1" xmlns="http://www.w3.org/2000/svg" viewBox="0 0 300 188.6"><title>brand-logo</title><path d="M113.88,179.22c.63,1.81,1.11,3.22,1.6,4.65-.48,1.42-1,2.83-1.51,4.48-9.4.85-18.41-.3-26.36-6A31.32,31.32,0,0,1,74.8,162.46a30.34,30.34,0,0,1,.4-14.94c1.2-4.07,3.71-7.92,6.28-11.4,4.37-5.93,10.69-9.38,17.65-11.34,3.68-1,7.63-1.09,11.63-1.61l2.9,3.49a6.09,6.09,0,0,1-5,4c-4.21.89-8.21,2.72-12.32,4.08-6.25,2.07-9.42,7.16-11.6,12.71-3.23,8.18-2.15,19.67,5.81,26a25.5,25.5,0,0,0,14.81,5.69C108.1,179.34,110.87,179.22,113.88,179.22Z"/><path d="M38.4,59.11,40,61.72c-1.46,3.51-4.59,3.81-7.47,4.61-4.84,1.34-9.51,2.86-13.83,5.74-5.24,3.49-7.6,8.72-8.75,14.16-.95,4.5-1.16,9.62.86,14.13a22.11,22.11,0,0,0,11.69,11.51A28.19,28.19,0,0,0,35.89,114c1.63-.12,3.52-.57,4.75,1.68v7.24c-13.46,1.77-25.3-1.41-33.83-12.52-7-9.11-8.9-19.7-4.31-30.43C9.05,64.62,21.25,58,38.4,59.11Z"/><path d="M40.79,94.39a47.69,47.69,0,0,0,0-6.34C39.59,79.62,49,70.31,57.13,69.18a23,23,0,0,1,12.16,1.1c7,2.76,11.58,7.22,13.19,15.15A17,17,0,0,1,79.36,99.5,21.81,21.81,0,0,1,67.09,108c-7.48,2.06-13.6-.27-19.68-3.7-1.5-.85-2.54-2.67-3.54-4.21C42.68,98.22,41.76,96.21,40.79,94.39Zm7-7.35c.38,2.22.88,5.18,1.44,8.52l8.56,6.1c8.22-.37,14.47-2.69,17.42-11.44-.35-2.52-.81-5.83-1.32-9.47l-7.55-5.08H58.13C53,77.28,49.91,80.87,47.83,87Z"/><path d="M209.06,96.57c-4.05,3.79-5,9.67-8.26,14.13h-6.53a11.12,11.12,0,0,1,.5-2.91,232.13,232.13,0,0,1,12.5-23.05c2.81-4.37,5.14-9,7.78-13.52a17.72,17.72,0,0,1,2.39-2.71h4.46a19.83,19.83,0,0,1,2.38,3Q234.71,90.77,245,110.12c.18.33-.15.93-.27,1.58h-7.48l-7.71-15.13ZM225.26,89c-2-3.76-3.24-7.58-6.45-10.42L212.87,89Z"/><path d="M221.19,166.23v8.7c-1.73,4.12-3.67,8.06-7.13,9-6.08.57-10.8,1-15.53,1.44-1.54.13-3.16.27-4.29-2,0-7.7.11-15.95,0-24.19-.1-5.23-.58-10.45-.91-16.2,5-2.21,10.37-.44,15.32-1.16l5.6,2.84c2.44,4.43,4.16,8.89,1.76,13.48Zm-5.37,1.88L212.49,165H200.7v11.78c4.7,1.46,8.82-.85,13.05-.83A8.78,8.78,0,0,0,215.82,168.11Zm-5.85-18c-3.72.3-6.58-.29-9.56.52l.26,5.81c3.71-.24,7.19.92,10.33-2C210.71,153.21,210.38,151.83,210,150.11Z"/><path d="M153.78,68.7v4.56l-10.49,9.22c2.27,2.54,4.34,4.86,6.41,7.2a4.54,4.54,0,0,1,.94,1.22,37.46,37.46,0,0,0,12,16.64c-1,1.95-1.9,3.7-2.89,5.63-5.61-2.2-8.64-6.36-11.18-11q-1.94-3.56-3.79-7.16a13.66,13.66,0,0,0-8.53-7.15l-2.3,2v17.65h-6.87a105.78,105.78,0,0,1-1.19-10.67c-.17-10-.06-20-.06-30.26H133c2.41,3.81.25,8.45,1.36,13.14,2.82-2.35,5.46-4.57,8.12-6.77s5.28-4.3,8.21-6.69Z"/><path d="M155.24,176.92c-4.07-4.58-4.65-9.26-4.64-14.35,0-6.81-.61-13.62-.93-20.43-.08-1.53-.32-3.17,1.75-4.21h5.94c1.18,1.44.49,3.22.57,4.86.4,8,.72,16,1.08,24.09,4,4.75,8.9,5.55,15.5,2.5,1.86-1.79,2.17-4.06,2.13-6.55-.09-6,0-12.07-.06-18.11a50.61,50.61,0,0,0-.71-5.58c1.29-2.6,4.09-1,6.45-1.37,2.61,7.94,1.23,15.85,1.52,23.64a29.72,29.72,0,0,1-.93,9.58c-1.35,4.74-4.4,6.94-9,8.42-4.75,1.53-9,0-13.48-.31C158.56,179,156.75,177.59,155.24,176.92Z"/><path d="M183.87,63.09V94.61c-3.21,2.35-4.07,2.35-7.35-.09-.43-10.15-.87-20.5-1.32-31.26H161.3V57.51c1.07-2.08,2.94-1.54,4.6-1.54q15.25,0,30.5,0c3.37,1.54,1.38,4.42,2.27,7.13Z"/><path d="M96.9,28.43c0-.43-.12-.93-.12-1.44V1.81c3.08-2.39,4-2.41,7.24-.08V9H112c1.3-2.55-.77-6,1.46-8.76h5.87V29.75c-2.25.11-4.75,1.41-6.93-1.38V18h-8.06V28.07C101,30.66,100.07,30.67,96.9,28.43Z"/><path d="M88.52,79.45c-.17-6.23-.35-12.45,4.89-17.76s10.85-7.85,18.38-7.87l3.07,3.58c-2.33,4-5.81,3.8-8.47,3.74-4.73,1.8-8,4.17-9.73,8.48C94,76.13,98,84.28,104.77,86.1c3.18.85,6.18-.46,8.63-.18,3,1.78,1.66,4,2.11,6-5.71,3.33-10.94,2.21-16.46.07C93.18,89.67,90.61,85,88.52,79.45Z"/><path d="M298.36,108.67H275.58c-.91-2.1-.22-4.35-.49-6.49s-.9-3.94-1-5.93c-.14-4.64.11-9.3-.1-13.94-.17-3.68-.79-7.35-1.19-10.84,3.06-2.62,4.93-2.72,8.5-.43,0,1.33-.06,2.85,0,4.37.37,8.5.78,17,1.19,25.87H298C300.59,104.61,300.61,105.48,298.36,108.67Z"/><path d="M142.92,173h-22.4c-2.45-.94-2-3-2-4.85q0-16.29,0-32.58c2.79-2.49,3.63-2.56,7.27-.32v30.31h16.54C145.07,168.54,145.13,169.39,142.92,173Z"/><path d="M127.88,10.43c3.83-1.54,7-3,11-1.4,2,.83,4.7.14,7.37.14.22,2.47,1.24,4.64-1.57,6.4H133.35l-.3,3.83h9.49l2.3,4.11-1.94,2.36h-7.79c-3.37,1.66-1.59,4.5-2.16,7.05,3.86,2.47,7.94.53,12.21,1.64.22.3,1.19,1,1.28,1.89a14.33,14.33,0,0,1-.64,3.79H129.1c-.3-.77-1.14-1.92-1.16-3.09C127.83,28.4,127.88,19.65,127.88,10.43Z"/><path d="M90.38,12.54c.12,2.43,1,4.55-1.7,6.11H79.75c-2,3.87.92,7.34.52,11a102.85,102.85,0,0,0-.09,10.83C77.5,43.07,76.82,43.15,73,41V18.85H63.41C61,15.53,61,15.53,63.22,12.54Z"/><path d="M253.34,62.73c2.72-1.41,5.24-2.83,8.11-.25V101c-1.76,2.59-4.33,1.12-6.12,1.51-2.46-1.2-2-3.06-2-4.72C253.33,86.3,253.34,74.77,253.34,62.73Z"/><path d="M259.84,49.9l1,4.38-3.48,2.91c-2.29-.58-3.36-1.94-4.35-4l2.8-3.51Z"/></svg>