<svg id="Layer_1" data-name="Layer 1" xmlns="http://www.w3.org/2000/svg" viewBox="0 0 300 80.83"><defs><style>.cls-1{fill:#fbb041;}.cls-2{fill:#020202;}.cls-3{fill:#030303;}.cls-4{fill:#040404;}.cls-5{fill:#060606;}.cls-6{fill:#090909;}.cls-7{fill:#0a0a0a;}.cls-8{fill:#0c0c0c;}</style></defs><title>brand-logo</title><path class="cls-1" d="M178.81.09c3.44.71,6.74,1.36,10,2.12a1.64,1.64,0,0,1,.92,1.14c1.38,8,2.7,16,4,24.06,0,.22.12.43.26.92,1.2-1.84,2.26-3.47,3.31-5.1,3.38-5.28,6.77-10.56,10.12-15.86.54-.85,1-1.27,2.12-1,2.84.73,2.85.66,3.26,3.58,1.07,7.6,2.14,15.19,3.26,23.11.44-.57.73-.94,1-1.33,4.46-6.53,8.94-13.06,13.37-19.61a1.62,1.62,0,0,1,2-.85c3.14.75,6.31,1.35,9.6,2-.22.39-.36.71-.55,1q-13.81,20-27.61,40c-.56.81-1.07.77-1.86.6-3-.63-3-.61-3.38-3.47-1-7.41-2.09-14.82-3.19-22.56-.42.61-.71,1-1,1.38-4,6.32-8.08,12.62-12.07,19a1.71,1.71,0,0,1-2.22,1c-2.91-.71-3-.63-3.46-3.46q-4-22.58-7.91-45.17A12.69,12.69,0,0,1,178.81.09Z"/><path class="cls-1" d="M100.64,30c0,12.91-11,23.72-24.26,23.72A23.83,23.83,0,0,1,52.44,29.47C52.49,16.41,63.53,5.76,77.05,5.79,87.88,5.82,100.68,14.65,100.64,30ZM76.81,15.78A13.67,13.67,0,0,0,62.75,29.24,14.13,14.13,0,0,0,76.53,43.69,13.84,13.84,0,0,0,90.37,30.12C90.51,22.35,84.31,15.79,76.81,15.78Z"/><path class="cls-1" d="M152.64,16v9.9H136.4V36.12h16.75V46H126V0h27.16V9.86h-16.8V16Z"/><path class="cls-1" d="M265,75.05l-9-4.75c1.57-3,3.06-5.92,4.57-8.81a46.25,46.25,0,0,1,2.55-4.83,12.65,12.65,0,0,0,1.85-8.41c-.3-4.2-.39-8.41-.57-12.61q-.25-5.82-.52-11.63c0-.46,0-.92,0-1.54.47.18.81.28,1.13.44,2.66,1.38,5.28,2.82,8,4.12a2.37,2.37,0,0,1,1.47,2.38q.18,6.18.42,12.35c0,1,.14,1.92.23,3.09l6.29-4c2.37-1.52,4.74-3,7.08-4.57a1.72,1.72,0,0,1,2-.12c3.07,1.67,6.19,3.25,9.52,5-1.34.86-2.49,1.62-3.65,2.36-7,4.45-14,8.89-21,13.38a5.61,5.61,0,0,0-1.83,2c-2.67,5-5.26,10-7.88,15C265.52,74.27,265.3,74.57,265,75.05Z"/><path class="cls-1" d="M24,72C17.37,58,10.8,44.23,4.15,30.3l9.32-4.45c5.21,10.9,10.36,21.7,15.61,32.7l11.23-5.28c1.43,3,2.81,5.88,4.29,8.95Z"/><path d="M119.46,52.9V4.05h5.05V47.5h25v5.4Z"/><path class="cls-2" d="M189.86,51.55c-.43.68-.77,1.24-1.13,1.78l-2.35,3.45c-1.92-.42-3.84-.79-5.74-1.28-.28-.07-.52-.69-.59-1.09q-2.62-14.83-5.2-29.69C173.6,17.55,172.33,10.37,171,3L178,4.39c.86,4.91,1.71,9.78,2.56,14.65,1.8,10.26,3.57,20.53,5.42,30.78.07.43.68.91,1.14,1.09A21.43,21.43,0,0,0,189.86,51.55Z"/><path class="cls-3" d="M0,36.52l4.52-2.15C10.78,47.51,17,60.6,23.34,73.84L42,65,44.3,69.8l-23.16,11C14.09,66.06,7.07,51.35,0,36.52Z"/><path class="cls-2" d="M259.15,78.89l-11.7-6.11,2.89-5.58c2-3.81,4-7.59,5.91-11.45a7.27,7.27,0,0,0,.69-3.31c-.37-10-.81-19.91-1.24-29.87,0-.18,0-.37,0-.82,2.25,1.17,4.4,2.23,6.47,3.43.32.18.34,1,.37,1.54.27,6.31.51,12.62.76,18.94a34,34,0,0,0,.21,3.64c.38,2.45-.45,4.52-1.59,6.63-2.67,4.92-5.19,9.91-7.84,15l7.23,3.8C260.6,76.08,259.9,77.42,259.15,78.89Z"/><path class="cls-3" d="M53,19.85a25.2,25.2,0,0,0,0,19.67A23.16,23.16,0,0,0,61.91,50.6a25.17,25.17,0,0,0,17.34,4.28,25.82,25.82,0,0,0,16.08-8.17c-3.27,7.43-11.57,13.14-20.75,13.77A25.13,25.13,0,0,1,49.73,46C45.52,36.62,47,26.64,53,19.85Z"/><path class="cls-4" d="M204.61,32.7c1.11,7.75,2.17,15.18,3.25,22.71l3.85.9c-1.18,1.71-2.24,3.32-3.4,4.86-.16.22-.77.23-1.13.16-1.7-.34-3.38-.74-5.17-1.15-.5-3.44-1-6.9-1.5-10.36-.35-2.41-.66-4.82-1-7.22a3.6,3.6,0,0,1,.54-2.77C201.54,37.57,203,35.24,204.61,32.7Z"/><path class="cls-5" d="M137.79,27.44H149v5.43H137.79Z"/><path class="cls-6" d="M194.82,24.62a5.46,5.46,0,0,1,.7-5.73c1.81-2.43,3.32-5.09,4.95-7.65,1.28-2,1.27-2,3.81-1.41Z"/><path d="M137.76,14.64v-3.3h11.72v3.3Z"/><path class="cls-7" d="M217.09,29.25c-1-2.11-.21-3.7,1-5.34,2.3-3.18,4.45-6.46,6.68-9.73l2.34.52c-3.24,4.76-6.39,9.38-9.55,14A5.2,5.2,0,0,1,217.09,29.25Z"/><path class="cls-8" d="M276.27,42.51V40.05l5.15-3.31c1.6-1,1.68-1,3.37.34Z"/><path class="cls-4" d="M84.62,39.3c1.42-6.19-.37-11.38-4.93-14.52S70.3,21.9,65,25.39c.53-3.8,5-7.48,9.91-8.13a12.26,12.26,0,0,1,12.7,7.08C90,29.81,88.85,35.79,84.62,39.3Z"/></svg>