<svg id="Layer_1" data-name="Layer 1" xmlns="http://www.w3.org/2000/svg" viewBox="0 0 300 26.12"><title>brand-logo</title><path d="M275.62,1.32c3.64.06,7.16-.3,10.79.08,1.3,1.46,2.64,3,4,4.53s2.75,3,4.21,4.44c.1-3-.22-5.89,0-8.77a11.37,11.37,0,0,1,5-.15,1,1,0,0,1,.24,1,28.94,28.94,0,0,0,0,3.84c.08,1.26,0,2.52,0,3.78a24.4,24.4,0,0,0,0,4,12.47,12.47,0,0,1,.05,2.12V24c0,.36,0,.72-.06,1.17h-6.28l-8.22-9-.17.05a28.59,28.59,0,0,0-.08,2.93V25a70.91,70.91,0,0,1-9.55.14C275.31,17.26,275.89,9.37,275.62,1.32Z"/><path d="M.21,1.39c.46,0,.82-.09,1.18-.09h9.55c1.37,0,2.74,0,4.1,0A10.18,10.18,0,0,1,20.53,3a5.94,5.94,0,0,1,2.26,5.67,6.4,6.4,0,0,1-.79,2,6.8,6.8,0,0,0-.41.73l1.47,1a5.94,5.94,0,0,1,2.7,4.59,7.12,7.12,0,0,1-.38,3.26,6.75,6.75,0,0,1-5.12,4.44,42.22,42.22,0,0,1-4.2.68,16.39,16.39,0,0,1-2-.08c-2.34,0-4.68,0-7,0-.53,0-1.05-.05-1.58-.05L1,25.23H.1A6.5,6.5,0,0,1,0,24.57c0-2.47-.07-4.95,0-7.42.07-1.31-.06-2.6,0-3.91,0-1,0-1.93,0-2.9,0-1.52.14-3,.15-4.57C.17,4.68.06,3.58,0,2.48A7.64,7.64,0,0,1,.21,1.39ZM9.7,15.78v3.78c.28,0,.52,0,.75,0,1.91,0,3.83,0,5.75,0a8.35,8.35,0,0,0,1.87-.18,1.86,1.86,0,0,0,1.54-1.29A1.64,1.64,0,0,0,18.32,16a3.12,3.12,0,0,0-1-.16,24,24,0,0,1-2.81,0c-.7,0-1.41,0-2.12,0Zm0-5.69a4.15,4.15,0,0,0,.52.06c1.53,0,3.05,0,4.58,0a2.44,2.44,0,0,0,1.64-.58c0-.1.1-.16.13-.24A1.59,1.59,0,0,0,15,6.94c-1.5,0-3,0-4.5,0-.25,0-.5,0-.79,0Z"/><path d="M193.45,10.35a5.77,5.77,0,0,0,1.08-.16c1.32-.53,2.63-1,3.92-1.65a10.91,10.91,0,0,1,3.69-1.3A7.79,7.79,0,0,0,203.3,7V1.55a1.67,1.67,0,0,1,.47-.21c1.57,0,3.14,0,4.7,0,.17.62.24,22.68.07,23.85-1.63.07-3.27,0-4.81,0a.91.91,0,0,1-.42-1A10.67,10.67,0,0,0,203.4,23c0-2.26,0-4.52,0-6.79,0-1.36-.07-2.73-.12-4.09,0-.16-.05-.31-.08-.55a4.85,4.85,0,0,0-.85.19c-1.41.64-2.83,1.27-4.21,2A12,12,0,0,1,194,14.83l-.4,0s0,0-.13.1V25.18c-1.66,0-3.25,0-4.83,0H183.8c0-.68,0-1.31-.05-1.93,0-.13,0-.26,0-.39q0-4.38,0-8.76V7.81c0-1.68,0-3.37,0-5,0-.42,0-.83,0-1.31a6.38,6.38,0,0,1,.89-.13c2.57,0,5.15,0,7.73,0a4.77,4.77,0,0,1,.83.13C193.62,4.39,193.17,7.3,193.45,10.35Z"/><path d="M58.41,25.57c-.59,0-1,0-1.43,0a6.82,6.82,0,0,1-3.4-.83,20.63,20.63,0,0,1-3.1-1.85,10.9,10.9,0,0,1-2.21-2.34,12.16,12.16,0,0,1-2.08-4.22A10.92,10.92,0,0,1,46,11.58c.09-.52.11-1.05.18-1.57a12,12,0,0,1,3.06-6.3A10.41,10.41,0,0,1,57.4,0c1,0,2,.08,3,.13a7.45,7.45,0,0,1,3.21,1,21.88,21.88,0,0,1,4.51,3.15,10.32,10.32,0,0,1,1.71,2.44,12,12,0,0,1,1,10.68c-.26.69-.55,1.36-.83,2a2.06,2.06,0,0,1-.25.49,13.68,13.68,0,0,1-4.42,4,19.32,19.32,0,0,1-4,1.47A15.7,15.7,0,0,1,58.41,25.57ZM58.23,6a3.51,3.51,0,0,0-2.08.5,5.84,5.84,0,0,0-2.29,1.62,7.74,7.74,0,0,0-1.7,5.21,5.82,5.82,0,0,0,2.15,4.47,8.42,8.42,0,0,0,3.38,1.45,5.54,5.54,0,0,0,1.47.07,5.79,5.79,0,0,0,3.3-1.35A7.13,7.13,0,0,0,64.9,14.1a6.36,6.36,0,0,0,0-2.42A7.52,7.52,0,0,0,64.56,10C63.73,7.54,60.57,5.81,58.23,6Z"/><path d="M111.61,1.4a28.21,28.21,0,0,1,5.12,0,7.82,7.82,0,0,1,.1.89c0,4.73,0,9.47,0,14.21A7.22,7.22,0,0,1,115,21.39c-.23.25-.44.53-.66.79A6.59,6.59,0,0,1,111.86,24a17.94,17.94,0,0,1-3.29,1,15.37,15.37,0,0,1-4,.22,21.38,21.38,0,0,1-6.19-1.06,8.22,8.22,0,0,1-5.72-6,9.82,9.82,0,0,1-.27-2c0-3.15,0-6.31,0-9.47,0-1.31-.08-2.63-.09-3.94a12.72,12.72,0,0,1,.1-1.3,8.67,8.67,0,0,1,.91-.1q3.83,0,7.65,0c.26,0,.51.05.83.08,0,.37.06.67.07,1,0,1.66,0,3.32,0,5,0,.61.09,1.21.13,1.81a4.42,4.42,0,0,1,0,.63c0,.75-.12,1.49-.14,2.24,0,.55,0,1.09.06,1.63,0,.94.06,1.89.1,2.83a4.5,4.5,0,0,0,1,2.76,4.37,4.37,0,0,0,2.32,1.27,5.71,5.71,0,0,0,4.26-.56,3,3,0,0,0,.9-.86,4.69,4.69,0,0,0,1.08-3c0-2.11,0-4.21-.07-6.31l0-4.34c0-1.18,0-2.36,0-3.54A2.71,2.71,0,0,1,111.61,1.4Z"/><path d="M229.05,13a12.89,12.89,0,1,1,25.77.78A12.89,12.89,0,0,1,229.05,13Zm5.8-.06a7.19,7.19,0,0,0,7.46,7.46c3.83-.45,6.6-2.81,6.73-7.11a7.09,7.09,0,0,0-6.9-7.16C237.88,6,234.7,9.68,234.85,12.92Z"/><path d="M160.69,5.81a65.81,65.81,0,0,1-6.06,4.57l-.75-.52c-.26-.17-.52-.35-.79-.51-2.84-1.59-5.88.92-6.2,3.22a4.17,4.17,0,0,0,.29,2.13,4.36,4.36,0,0,0,3.07,2.7,4,4,0,0,0,3.11-.5,6,6,0,0,0,1.15-.94c.35-.35.65-.74,1-1.13a1.12,1.12,0,0,1,.4.09c2,1.35,4.08,2.58,6,4.17l-.66,1a11.48,11.48,0,0,1-5.49,4.45,10.16,10.16,0,0,1-3.9.86h-.08c-2.08.42-3.92-.41-5.75-1.19a11.57,11.57,0,0,1-4.16-3.06,13.33,13.33,0,0,1-2.11-3.49,12.38,12.38,0,0,1-.91-5.63,6.26,6.26,0,0,1,.32-1.46,13.69,13.69,0,0,1,3.42-6,12.12,12.12,0,0,1,5.45-3.15,13,13,0,0,1,4.36-.32,11.41,11.41,0,0,1,5.56,2,8.31,8.31,0,0,1,2.44,2.21C160.48,5.42,160.54,5.54,160.69,5.81Z"/></svg>