<svg id="Layer_1" data-name="Layer 1" xmlns="http://www.w3.org/2000/svg" viewBox="0 0 300 30.56"><title>brand-logo</title><path d="M293.7,1H300c-4.53,4.83-5.27,10.62-7.08,16-1.44,4.23-2.78,8.5-4.16,12.75l-1.11,0-6.39-19.52-.8-.13L274,30.35A25.12,25.12,0,0,1,272.14,27c-1.65-5-3.09-10-4.86-14.88-1.34-3.7-3.06-7.26-4.68-11H270c-1.42,7.11,2.69,12.91,4.11,19.36h1L281.24,1.6c4,5.91,5.1,12.65,8.41,19.89C291.1,14,295.42,8.31,293.7,1Z"/><path d="M81.62,16.84c2.36,4.07,4.6,7.91,6.94,11.93-1.81,2.13-3.28,2.45-5,.34a22,22,0,0,1-2.35-4.42c-1.31-2.7-2.57-5.41-3.84-8.08H69.11C68,21,68,25.22,70.73,29.4a8.69,8.69,0,0,1-7.48.39A56.33,56.33,0,0,0,63.15.91c6.62,0,13.43-.67,20.21.53,3.31.59,5.56,2.69,5.93,6.08A7.24,7.24,0,0,1,85.22,15C84.2,15.58,83.15,16.07,81.62,16.84Zm-12.8-2.9c4.06,0,7.9.29,11.66-.09,2.86-.29,4-2.4,4-5.51S83.12,3.43,80.08,3.2c-3.62-.27-7.29-.06-11.26-.06Z"/><path d="M93.47,1.12H99.8c-.35,3-.81,5.88-1,8.76s0,6,0,10.14L112.55,4.8l-1-3.56h8.26L108.87,11.53l10.65,18c-2.63,1.48-5.63.95-9,.13,3.62-6.31-2.59-9.35-3.59-14.32-8.08,5.54-9.25,8.17-6.3,14.57l-7.49.4A77.74,77.74,0,0,0,93.47,1.12Z"/><path d="M232.51,29.42h-7.87a50.07,50.07,0,0,0,1.75-6.25,48.06,48.06,0,0,0,.06-6.54l-8.66-.38c-1.32,2.64-2.58,5.15-3.8,7.66a33.71,33.71,0,0,1-2.16,4.53c-1.82,2.61-3.12,2.47-5.39.1l6.92-11.89A45.39,45.39,0,0,1,209,14.34c-2.37-1.64-3.72-3.88-3.3-6.87A7,7,0,0,1,211,1.34a8.83,8.83,0,0,1,2.48-.46c6.05,0,12.1,0,18.82,0-2.72,4.79-2.25,9.6-2.2,14.35S229.35,24.65,232.51,29.42Zm-6.27-27c-3.94,0-7.33-.26-10.66.07a5.29,5.29,0,0,0-5.06,5.37c-.14,2.8,1.27,5.41,3.83,5.81,3.92.61,8,1,11.89-.28Z"/><path d="M30.44,15.91C30.24,7.92,35.1.28,45.27.29c8.85,0,14.5,5.83,14.81,14.61A14.69,14.69,0,0,1,45.14,30.51C36.74,30.58,30.52,24.4,30.44,15.91Zm25.26-.38-.53-.2a28.45,28.45,0,0,0-.53-5A10.62,10.62,0,0,0,47.35,2.6c-3.42-1-6.37.3-8.73,2.69-4.7,4.76-4.95,14.44-.65,19.6s11.61,4.8,14.91-.94C54.33,21.43,54.79,18.36,55.7,15.53Z"/><path d="M150.56,28.21V21.35c1.35,1.36,2.11,2.12,2.85,2.88A12.23,12.23,0,0,0,164.94,28c2.87-.52,5.19-3,5.42-5.36s-1.62-4.65-4.93-5.5c-2.93-.76-6-1.06-8.91-1.8-4.55-1.13-6.6-3.45-6.62-7.11s2.46-6.64,6.74-7.72a10.63,10.63,0,0,1,3.49-.4c4,.38,8,.93,12.3,1.46V8.38C171,7.16,170.24,6.62,169.61,6c-2.91-3-6.54-4-10.6-3.7-2.73.23-4.85,2.07-5,4.16s1.53,3.91,4.52,4.55c3.61.76,7.43,1,10.81,2.38,6.17,2.46,7.14,9.39,2.25,14a11.37,11.37,0,0,1-10.32,2.81C157.78,29.48,154.34,28.88,150.56,28.21Z"/><path d="M259.54,1V6.77c-3.06-1.61-5.61-3.57-8.47-4.28s-6-.16-9.39-.16v9.86c5.56,1.48,6.76,1.21,10.58-2.58,1.57,2.75,1,5.36.43,8.15-4.67-3-5.68-3.11-11.1-1.75v11.6c6.61.67,13,2.28,17.93-4.59v6.32H235.89c1.84-9.5,1.37-18.74.29-28.3Z"/><path d="M136.52,24.61c-6,6-9.74,7-13.07,3.66s-1.81-7.82,4.15-12.87c-2.49-5.47-2.22-8.28,1-10.18a6.26,6.26,0,0,1,7.82,1.23c2.34,2.6,2,4.76-1.74,9l2.46,3.06a7.58,7.58,0,0,0,1.33-.72c1-.91,1.78-2.27,2.93-2.69a5.27,5.27,0,0,1,4.06.19c1.48.9,1.38,2.53-.46,4.2L141,18.08c-.45.69-1.54,1.59-1.41,2.27.73,4,3.94,5.89,7.33,7.5C143.89,31.15,143.89,31.15,136.52,24.61Zm-1.1-2.75L130,17c-2.65,1.41-4.87,2.77-4.58,5.67a4.51,4.51,0,0,0,2.48,3.23C131.09,26.85,133.25,25,135.42,21.86Zm-3.27-8.25c2.64-.59,4.36-1.74,3.74-4.14a5,5,0,0,0-2.84-3c-2.19-.73-3.84.33-4.48,3.19C129.71,11,131,12.36,132.15,13.61Z"/><path d="M24.53,1.07v7.4C22.89,6.94,21.9,6,20.86,5.05,15.43.26,8.26,1.87,5.58,8.55a17,17,0,0,0,.49,14.2A9.6,9.6,0,0,0,17.49,28a8.3,8.3,0,0,0,6.35-9c-.11-1.07-.13-2.16-.2-3.24l1.06-.47c.66.94,1.71,1.81,1.91,2.84a9.12,9.12,0,0,1-3.24,9c-7.89,7-21.32,2.63-23.09-7.71A23.55,23.55,0,0,1,1,9.05C2.85,2.91,8.92-.34,15.33.46,18.16.81,21,.85,24.53,1.07Z"/><path d="M202.34,1.05v7.3c-1.66-1.56-2.66-2.54-3.7-3.47C193.33.13,185.9,1.73,183.29,8.32A17.05,17.05,0,0,0,184.1,23a9.7,9.7,0,0,0,14.35,3.29,7.39,7.39,0,0,0,3.21-7.46,27.27,27.27,0,0,1-.18-3.28c2.53-.09,2.89,1.41,3.06,3,.47,4.1-1.24,7.22-4.61,9.46a14.2,14.2,0,0,1-22.15-10.83,30.26,30.26,0,0,1,0-4c.47-8.51,7.48-14.13,16-12.93C196.38.54,199.05.72,202.34,1.05Z"/></svg>