<svg id="Layer_1" data-name="Layer 1" xmlns="http://www.w3.org/2000/svg" viewBox="0 0 300 101.34"><title>brand-logo</title><path d="M70,57.1a45.59,45.59,0,0,1-3.9-3.68c-5-6.05-3-15.8,3.89-19.11a7.76,7.76,0,0,1,2.14-.69,4,4,0,0,1,1.38.31,3.91,3.91,0,0,1-.4,1.33,13.45,13.45,0,0,0-2.64,8.92,6.85,6.85,0,0,0,2.67,5.38c5.41-15,10.62-29.87,20.75-42.77C92,6.26,90.32,5.63,88.59,5.31,77,3.16,66.06,4.86,56.75,12.53c-10.08,8.3-10.6,21.67-1.56,31.09l1.14,1.2-16,21.4c-1.75-2.91-3.52-5.45-4.9-8.19C29.83,46.93,30.87,35.82,36,25,42.06,12.07,52.78,4.89,66.31,1.6a54.55,54.55,0,0,1,30.2,1.14,4.31,4.31,0,0,0,1.93-.17c.33-.07.6-.42.93-.47.66-.12,1.6-.41,2-.09s.42,1.31.54,2a2.31,2.31,0,0,1-.19.81c.88.51,1.75,1,2.59,1.5,6.84,4.13,12,9.66,13.19,17.79,1.66,10.9-2,20.07-10.44,27.07-8.18,6.75-17.76,9.35-28.3,8.25-1.15-.12-1.35.47-1.69,1.22-5.3,11.77-12.61,22-22.82,30.08-9.39,7.4-20,11.26-32.07,10.5A44.92,44.92,0,0,1,2.7,95.85C1.79,95.34,1,94.66,0,94L18.14,70.66C20.82,72.24,23.3,74,26,75.26,38,81,52.58,79,62.38,67.49,65.16,64.22,67.46,60.55,70,57.1Zm10-5.24a4.63,4.63,0,0,0,.78.2,9.61,9.61,0,0,0,1.2,0,30.28,30.28,0,0,0,12.5-3.58c10-5.29,15-14.87,13.14-25.71A19.66,19.66,0,0,0,98.38,9.26C89,22.09,84.15,36.74,79.94,51.86Z"/><path d="M294.89,32.5c-1.26-1-2.3-2-3.47-2.72-3.77-2.44-7.49-2.24-10.52,1a71.73,71.73,0,0,0-6.67,8.88c-3.18,4.76-6,9.78-10.19,13.78-3.64,3.48-7.85,5.56-13,5.25a10.92,10.92,0,0,1-7.06-3,7.49,7.49,0,0,1-2.4-6.67,8.09,8.09,0,0,0,0-2.7c-.44.54-.84,1.11-1.3,1.63-2.19,2.48-4.27,5.09-6.63,7.41-3.74,3.69-8.08,6.32-13.58,6.32-4.57,0-7.29-3.25-6.1-7.67a41.19,41.19,0,0,1,3.2-7.76c1.38-2.73,3.07-5.3,4.62-7.94l.84-1.41a7.23,7.23,0,0,0-8.09,3.85A70.24,70.24,0,0,1,203.3,57.64c-3.28,3.54-6.94,6.59-11.74,7.85a15.64,15.64,0,0,1-3.72.5c-4.56.08-7.07-2.51-6.29-7.54a24.63,24.63,0,0,1,2.86-7.38c1.75-3.38,3.83-6.59,5.76-9.86a6.74,6.74,0,0,0-7.28,3c-2.48,4.19-4.81,8.47-7.47,12.54-3.37,5.16-7.26,9.91-12.68,13.12-3.66,2.16-7.54,3.07-11.68,1.5-3.1-1.17-5.19-3.32-5.48-6.73-.19-2.17,0-4.38,0-6.79-.62.93-1.23,1.8-1.78,2.7-2.44,4-5,7.93-8.49,11.08-2.86,2.55-6.1,4.25-10,4.24-5.36,0-8.49-3.05-8.54-8.39,0-2,.3-4.08.47-6.2-1.72,1-3.41,2.08-5.16,3a27.84,27.84,0,0,1-3.72,1.61c-.34.13-.82-.13-1.23-.21.12-.4.12-.93.38-1.18a20.47,20.47,0,0,1,2.77-2.33,40.07,40.07,0,0,0,13.11-13.7,29.13,29.13,0,0,1,2.23-3.39,7.51,7.51,0,0,1,1.89-1.92,5.46,5.46,0,0,1,2.07-.33,5.23,5.23,0,0,1,.12,2.06,27.7,27.7,0,0,1-1.73,3.33,16.24,16.24,0,0,0-1.62,12.23c1.07,4,3.86,5.38,7.73,4a11.88,11.88,0,0,0,5.69-4.32c2-2.66,3.83-5.4,5.73-8.12,3.11-4.45,6.68-8.42,11.51-11.1A12.58,12.58,0,0,1,164,39.19c2.54.18,3.86,1.61,4,4.16.17,3.68-1.72,6.33-4.23,8.62-2,1.79-4.14,3.35-6.19,5.05-1.84,1.51-1.83,2.14,0,3.6a5.84,5.84,0,0,0,6.79.67,27.32,27.32,0,0,0,5.86-4.38,37.8,37.8,0,0,0,7.81-11.73,6.17,6.17,0,0,0,.27-5.37,2.38,2.38,0,0,1,0-1.6c1-2.92,5.74-4.66,8.29-3a5.17,5.17,0,0,0,4.59.63,15.19,15.19,0,0,1,3.54-.62c1.81-.07,2.41.73,1.89,2.45a34.69,34.69,0,0,1-1.43,3.47c-1,2.19-2.05,4.35-2.94,6.59a8.92,8.92,0,0,0-.54,3.08c-.09,3.08,2,4.86,5,4.12a11,11,0,0,0,4.11-2.06,33.45,33.45,0,0,0,9.69-13.07,4.62,4.62,0,0,0,.08-4.34,2.54,2.54,0,0,1,.4-2.08,7.26,7.26,0,0,1,4.75-3.19,4.12,4.12,0,0,1,2.82.59,6,6,0,0,0,5.45.69,13.66,13.66,0,0,1,3.56-.41c1.35,0,1.88.64,1.47,1.94-.47,1.47-1.19,2.86-1.76,4.31-1,2.55-2.13,5.08-3,7.69a4.21,4.21,0,0,0,1.07,4.73c1.53,1.32,3.29,1,5,.37,2.79-1,4.79-3.13,6.63-5.33,2.55-3,4.82-6.33,7.52-9.23a61.18,61.18,0,0,1,7.82-7,12.12,12.12,0,0,1,8.32-2.09,3.48,3.48,0,0,1,3.63,3.76,11.26,11.26,0,0,1-4.3,9.22c-2,1.69-4.21,3.09-6.31,4.65-1.67,1.25-1.62,2.26.25,3.23a8,8,0,0,0,8.6-.45,34.86,34.86,0,0,0,6.23-5.6c3.77-4.24,7.15-8.83,11-13a18.9,18.9,0,0,1,12.77-6.41c2.29-.17,4.54,0,6.48,1.41,1,.73,1.44,1.45.47,2.69C297.83,28.05,296.41,30.3,294.89,32.5ZM159.73,45c-3.42.14-6.18,4.26-5.45,8.15C158.07,52,160.41,48.48,159.73,45Zm91.14-4.43A6,6,0,0,0,256,33.38C252.16,33.55,250,36.53,250.87,40.55Z"/><path d="M130.25,35.4a6.7,6.7,0,0,1,4.28-6,1.82,1.82,0,0,1,2.41.89c1.33,2.53-.55,6.91-3.29,7.68C131.49,38.61,130.2,37.62,130.25,35.4Z"/></svg>