<svg id="Layer_1" data-name="Layer 1" xmlns="http://www.w3.org/2000/svg" viewBox="0 0 300 100.17"><title>brand-logo</title><path d="M300,50.22a4.53,4.53,0,0,0-.64.13q-19,6.34-38.07,12.69L211.17,79.77,161,96.52q-5.3,1.77-10.6,3.57a1.32,1.32,0,0,1-1,0L131.06,94,80.8,77.17l-50-16.7L.4,50.32,0,50.16c.1-.18.29-.19.43-.24l11-3.65L42.25,36,92.31,19.27l46-15.36,4.27-1.42L149.19.25l.7-.25h.1a3,3,0,0,0,.31.15l5.18,1.73,43.29,14.46,50,16.7,43.68,14.55,6.62,2.23a7.33,7.33,0,0,0,.93.2ZM150.1,93.05l.34-.08L160,89.8l25.26-8.44L204,75.08l18.82-6.29,31.61-10.55,23.72-7.92.5-.18-.56-.22L247.4,39.66,216.13,29.22l-44-14.7-18.58-6.2L150.09,7.2c-.2-.17-.39,0-.56.06q-9.22,3.06-18.44,6.15L93.43,26,68.51,34.3,37.2,44.76,21.69,49.93c-.15,0-.29.12-.52.21l.57.2,9.07,3L56.08,61.8l31.6,10.55L119,82.81l23.91,8c2.21.73,4.42,1.48,6.63,2.2C149.71,93.06,149.9,93.23,150.1,93.05Z"/><path d="M168.27,45.28q0-9.59,0-19.17c0-2.82,0-5.65,0-8.47v-.2c0-.45.2-.58.63-.45.69.22,1.38.45,2.06.69l2.93,1c.5.18.53.2.53.72q0,7.65,0,15.31c0,.68,0,1.36,0,2,0,2.07,0,4.13,0,6.19,0,4,0,8,0,11.92l0,14.26a5.11,5.11,0,0,0,.31,2,1.26,1.26,0,0,0,1,.89,1.35,1.35,0,0,0,.45,0c1.63-.37,3.25-.77,4.89-1.12a2.38,2.38,0,0,0,1.65-1.3,5.5,5.5,0,0,0,.63-2.58q0-2.31,0-4.62c0-3.33,0-6.66,0-10l-.06-21q0-4.29,0-8.57v-.26c0-.45.18-.58.6-.46l1.55.5,3.47,1.11c.57.19.57.19.57.78,0,6.37,0,12.75,0,19.12q0,11.09.09,22.17a21.78,21.78,0,0,1-.73,6,15.18,15.18,0,0,1-.84,2.28,9.12,9.12,0,0,1-5.89,5l-5.19,1.53c-.65.19-1.29.4-2,.55a5,5,0,0,1-2.07,0,4.39,4.39,0,0,1-2.84-2,9,9,0,0,1-1.3-3.27,23.74,23.74,0,0,1-.5-5q0-3.68,0-7.35V45.28Z"/><path d="M150,89.38l-7.32-2.21c-.59-.18-.6-.18-.59-.81,0-3.65,0-7.3,0-11,0-3.82,0-7.64.06-11.46q0-6.67,0-13.34,0-14.22.1-28.45c0-2.79,0-5.58.06-8.37,0-.56,0-.56.56-.73,2.1-.64,4.2-1.27,6.3-1.92.3-.09.56-.14.77.15V82.37l2.12-.52,11.68-2.94.15,0c.49-.1.66,0,.66.53,0,.94,0,1.89,0,2.84,0,.67,0,1.35,0,2s0,.67-.61.85l-6.73,2Z"/><path d="M192.75,50c-.05-4.88-.1-9.77-.12-14.65a11.54,11.54,0,0,1,.8-4.42,8.3,8.3,0,0,1,.87-1.64,4.62,4.62,0,0,1,4.28-2,8.42,8.42,0,0,1,2,.37c2,.62,3.91,1.27,5.86,1.93a10.42,10.42,0,0,1,7.19,8.2,13.9,13.9,0,0,1,.3,3.22c0,.42-.15.56-.57.49-1.62-.24-3.24-.48-4.85-.75-.69-.11-.69-.12-.68-.8a4.67,4.67,0,0,0-.28-1.74,2.67,2.67,0,0,0-2-1.79c-1.66-.35-3.33-.73-5-1.07a1.3,1.3,0,0,0-1.65,1.09,3.56,3.56,0,0,0-.11.86q.09,6.15.19,12.32c0,2.61.11,5.23.16,7.85,0,1.59,0,3.18.06,4.77a4,4,0,0,0,.18,1.14,1.34,1.34,0,0,0,1.81,1l6.66-1.55,5.72-1.33a1.48,1.48,0,0,1,.35-.05.34.34,0,0,1,.39.31,1.61,1.61,0,0,1,0,.31c0,1.79,0,3.58,0,5.37,0,.49,0,.56-.49.7L201,72.52a6.34,6.34,0,0,1-2.9.3A4.85,4.85,0,0,1,195,71a8.61,8.61,0,0,1-1.62-3.67A16.94,16.94,0,0,1,193,64q0-5.49-.12-11c0-1,0-2-.08-3Z"/><path d="M232,55.48l-6.65,1L225,58.3c-.34,2-.69,4.06-1,6.09a.61.61,0,0,1-.44.55l-6,2c-.53.18-.75,0-.65-.56q.59-3.16,1.16-6.33c.57-3.13,1.12-6.25,1.68-9.38s1.11-6.28,1.68-9.42c.34-1.88.69-3.75,1-5.63.12-.61.23-.67.83-.46l7.15,2.41c1,.34,2,.69,3,1a.77.77,0,0,1,.59.61q2.67,9.76,5.36,19.54c.22.8.2.82-.58,1.08L234,61.47c-.63.21-.74.14-.86-.49q-.51-2.58-1-5.17A2.75,2.75,0,0,0,232,55.48Zm-5.51-4.88h4.37l-2-9.19-.61-.14C227.66,44.4,227.07,47.49,226.47,50.6Z"/><path d="M120.42,59.31l-4.3-.35c0,.77,0,1.51,0,2.25q0,4.66.1,9.33,0,3.42.08,6.85v.35c0,.41-.2.54-.6.41L112.14,77,110,76.25c-.55-.19-.57-.21-.57-.79,0-2.43,0-4.87,0-7.3q0-11.29,0-22.58,0-10.32,0-20.64v-.2c0-.45,0-.51.48-.65l3-1,11.19-3.74a9.75,9.75,0,0,1,2.93-.56A4.17,4.17,0,0,1,130,19.91,7,7,0,0,1,131.81,23a15.11,15.11,0,0,1,.71,3.93c.08,1.45.12,2.9.14,4.36.07,3.31.17,6.62.16,9.93a40.44,40.44,0,0,1-1.51,11.32,24,24,0,0,1-.81,2.29,10.29,10.29,0,0,1-2.54,3.9c.13.55.26,1.1.41,1.66l5.88,22.12c.1.37.22.74.33,1.11s.21.46,0,.67-.41,0-.61,0c-2.07-.68-4.13-1.38-6.2-2a.81.81,0,0,1-.6-.6c-.61-1.93-1.25-3.85-1.84-5.79q-2.42-8.06-4.79-16.12C120.51,59.57,120.47,59.47,120.42,59.31Zm-4.6-8.19.44,0,7.6.16a1.08,1.08,0,0,0,1-.45,7.21,7.21,0,0,0,.71-1.27,9.9,9.9,0,0,0,.57-3.74c0-3.15,0-6.31,0-9.47,0-2,0-3.89,0-5.83a6.52,6.52,0,0,0-.3-1.69,1.27,1.27,0,0,0-1.2-.93,2.1,2.1,0,0,0-.75.05c-2.58.61-5.15,1.24-7.73,1.87a2,2,0,0,0-.26.1C115.85,37,115.75,44.06,115.82,51.12Z"/><path d="M98.59,60.05l-6.85-1c-.11.77-.21,1.5-.31,2.23q-.51,3.79-1,7.58c0,.07,0,.14,0,.2-.1.39-.24.48-.62.36L88.43,69,84.1,67.58c-.56-.18-.59-.23-.49-.8.39-2.09.8-4.18,1.15-6.27.39-2.29.74-4.57,1.08-6.86.41-2.74.78-5.49,1.19-8.23.51-3.34,1-6.67,1.57-10,.21-1.3.47-2.59.66-3.89a.8.8,0,0,1,.62-.75l8.89-3,1.68-.55c.48-.15.65,0,.71.47q.38,3.3.73,6.6.39,3.45.77,6.9c.19,1.68.36,3.36.55,5l.66,5.95c.19,1.63.36,3.25.55,4.88s.38,3.36.57,5,.35,3.16.54,4.73q.43,3.66.89,7.3c.06.52-.13.73-.62.57l-6-1.93a.54.54,0,0,1-.41-.56c-.08-1.18-.18-2.36-.26-3.54l-.39-5.82C98.7,62,98.65,61,98.59,60.05Zm-6-9.14h5c-.67-5.4-1.32-10.76-2.08-16.15l-.82.16C94,40.24,93.34,45.54,92.64,50.91Z"/><path d="M79.56,48.77a8.76,8.76,0,0,1,1.75,3.73,12.6,12.6,0,0,1,.27,2.2c0,1.22,0,2.44,0,3.65a8,8,0,0,1-.3,1.95,5.82,5.82,0,0,1-4.56,4.27,2.78,2.78,0,0,1-1.64-.08L62.24,60.23c-.9-.29-1.79-.6-2.69-.9-.58-.19-.59-.21-.59-.82,0-2.52,0-5,0-7.55,0-3.08,0-6.16,0-9.23,0-.61,0-.64.49-.79l13.1-4.37a7.48,7.48,0,0,1,3.69-.38,5.51,5.51,0,0,1,4.65,4.25,9,9,0,0,1,.3,2.2c0,1,0,2-.05,2.93a3.6,3.6,0,0,1-.81,2.25C80.05,48.12,79.82,48.43,79.56,48.77Zm-13.5,8.94.4.12L71.74,59c.63.14,1.25.29,1.88.42a1.21,1.21,0,0,0,1.59-1.26.31.31,0,0,0,0-.1c0-1.21,0-2.43,0-3.65a2,2,0,0,0-1.84-2c-.91-.08-1.82-.13-2.73-.19l-2.94-.17c-.56,0-1.13,0-1.73,0ZM65.79,47l1.62-.14c1.79-.17,3.57-.32,5.35-.5a2.13,2.13,0,0,0,1.9-2.11c0-.87,0-1.75,0-2.63a1.26,1.26,0,0,0-1.71-1.29l-5.18,1.21-2,.48Z"/></svg>